/* XPM */
static const char *appexec[] = {
/* columns rows colors chars-per-pixel */
"16 17 132 2",
"   c #191919",
".  c #1A1A1A",
"X  c #212221",
"o  c #333333",
"O  c #343434",
"+  c #353535",
"@  c #363636",
"#  c #3C3C3C",
"$  c #21470E",
"%  c #264C13",
"&  c #254F15",
"*  c #294F21",
"=  c #284F22",
"-  c #2E5529",
";  c #3C403D",
":  c #3D403D",
">  c #3D6338",
",  c #486737",
"<  c #446F34",
"1  c #35324D",
"2  c #424442",
"3  c #454545",
"4  c #464646",
"5  c #494949",
"6  c #4A4A4A",
"7  c #4C574D",
"8  c #575757",
"9  c #456740",
"0  c #4F604F",
"q  c #4D6D4F",
"w  c #4E7049",
"e  c #457948",
"r  c #4A7C4C",
"t  c #536552",
"y  c #516F52",
"u  c #5E6B59",
"i  c #597656",
"p  c #625F77",
"a  c #646464",
"s  c #6A6A6A",
"d  c #6B6B6B",
"f  c #6D6D6D",
"g  c #6F6F6F",
"h  c #697666",
"j  c #67657B",
"k  c #707070",
"l  c #777777",
"z  c #7F7F7F",
"x  c #28912E",
"c  c #309D36",
"v  c #2FA135",
"b  c #31A336",
"n  c #31A237",
"m  c #30A636",
"M  c #38AE3E",
"N  c #3BA941",
"B  c #5C9559",
"V  c #42AA47",
"C  c #45BC4B",
"Z  c #49BF4F",
"A  c #51AA56",
"S  c #57AD5B",
"D  c #4AB850",
"F  c #51B256",
"G  c #679B63",
"H  c #71A06D",
"J  c #4BC051",
"K  c #4DC353",
"L  c #4FC055",
"P  c #58C55D",
"I  c #52C958",
"U  c #53C959",
"Y  c #54CA5A",
"T  c #55CA5B",
"R  c #5ECF64",
"E  c #65DB6B",
"W  c #68DC6E",
"Q  c #72C076",
"!  c #72CC77",
"~  c #73E979",
"^  c #74E97A",
"/  c #CC9900",
"(  c #D2A606",
")  c #D8B20C",
"_  c #6D6A84",
"`  c #7F7C98",
"'  c #7FD283",
"]  c #828282",
"[  c #838383",
"{  c #868686",
"}  c #898989",
"|  c #8A9F85",
" . c #858397",
".. c #949494",
"X. c #969696",
"o. c #95A791",
"O. c #9DAE97",
"+. c #9190A1",
"@. c #A5A5A5",
"#. c #A7A7A7",
"$. c #A8A8A8",
"%. c #A8A6B5",
"&. c #B7B7B7",
"*. c #B8B8B8",
"=. c #BABABA",
"-. c #BFBFBF",
";. c #A6C3A1",
":. c #B4B1CD",
">. c #C0C0C0",
",. c #C1C1C1",
"<. c #C9C9C9",
"1. c #CBD3C7",
"2. c #D0D0D0",
"3. c #D9D9D9",
"4. c #D9D8DE",
"5. c #CDFFD0",
"6. c #CEFFD1",
"7. c #DCDCE1",
"8. c #D9D6F2",
"9. c #E0DFE4",
"0. c #E1DEFA",
"q. c #E4E1FD",
"w. c #E5E2FE",
"e. c #E9E6FF",
"r. c #EBE9FF",
"t. c #EEECFF",
"y. c #EFEDFF",
"u. c #F0F0F2",
"i. c #F5F4FF",
"p. c #FAFAFB",
"a. c #FDFDFD",
"s. c #FFFFFF",
/* pixels */
"s.&.s.s.s.p.4.%._ _ 7.>.>.>.>.>.",
"s.8 s.s.9. .` s.s.0.1 j u.s.s.>.",
"s.8 d s.+.t.s.s.i.r.8.:.p s.s.s.",
"s.&.8 d | t.i.r.e.e.w.w.u s.s.s.",
"s.s.&.8 H 6.R D N N c x , f 2.s.",
"s.s.s.&.G 6.~ E I I Z v w 4 a 2.",
"s.s.s.s.B 5.~ W T I J n w s.o #.",
"-.s.s.-.o o o o r S P V i <.O } ",
") ( / o 3.>.>.*.o y ' Q h [ # #.",
"z z z o *.$.$.@...o ; ; 2 @ l 2.",
">.>.>.o ..d d d k o . . X k 2.s.",
") ( / o { 6 6 6 3   7 0 t s.s.s.",
"z z z o ] + + +   q ! F > s.s.s.",
">.>.>.-.        e A L b - s.s.>.",
">.>.>.>.;.= K C M M m = o.>.>.>.",
">.>.>.>.>.O.< & $ % , 1.>.>.>.>.",
">.>.>.>.>.>.>.>.>.>.>.>.>.>.>.>."
};
