/* XPM */
static const char *back[] = {
/* columns rows colors chars-per-pixel */
"16 17 137 2",
"   c #717171",
".  c #777777",
"X  c #7A7A7A",
"o  c #7B7B7B",
"O  c #189907",
"+  c #189A06",
"@  c #189A07",
"#  c #1D9E0B",
"$  c #1E9E0B",
"%  c #1E9E0C",
"&  c #239F15",
"*  c #249E14",
"=  c #23A210",
"-  c #24A211",
";  c #26A312",
":  c #2AA717",
">  c #2BA717",
",  c #29A219",
"<  c #29A31A",
"1  c #2DA819",
"2  c #31A91D",
"3  c #31AC1D",
"4  c #32AC1D",
"5  c #389930",
"6  c #389A30",
"7  c #3AAF25",
"8  c #37A32F",
"9  c #38A22F",
"0  c #39B122",
"q  c #38B123",
"w  c #39B123",
"e  c #41B629",
"r  c #40B729",
"t  c #41B729",
"y  c #48BC2F",
"u  c #43AB3A",
"i  c #45AE3A",
"p  c #48BC30",
"a  c #4AB836",
"s  c #50B83D",
"d  c #4FC135",
"f  c #4FC136",
"g  c #50C236",
"h  c #57C63B",
"j  c #56C63C",
"k  c #57C63C",
"l  c #55AF49",
"z  c #56AF49",
"x  c #5FBF52",
"c  c #6AB566",
"v  c #6AB567",
"b  c #76BD71",
"n  c #5DCB41",
"m  c #5ECB41",
"M  c #5FC946",
"N  c #5FC353",
"B  c #63CF46",
"V  c #63CF47",
"C  c #64CF46",
"Z  c #63D046",
"A  c #67D04E",
"S  c #67D14E",
"D  c #69D34B",
"F  c #69D44B",
"G  c #6DD64F",
"H  c #6DD74F",
"J  c #6ED74F",
"K  c #66C057",
"L  c #69C959",
"P  c #69CE5A",
"I  c #6BD452",
"U  c #6CD452",
"Y  c #71D952",
"T  c #73D362",
"R  c #72D462",
"E  c #74D565",
"W  c #74D566",
"Q  c #75C271",
"!  c #82DA69",
"~  c #87CF7A",
"^  c #86CC7F",
"/  c #85D27F",
"(  c #818B82",
")  c #818C82",
"_  c #828E83",
"`  c #898989",
"'  c #96A897",
"]  c #97A999",
"[  c #99AE9A",
"{  c #9AB09C",
"}  c #9ABE99",
"|  c #ACACAC",
" . c #A0B4A2",
".. c #A0B6A2",
"X. c #A2B9A4",
"o. c #A2BBA4",
"O. c #A3BBA5",
"+. c #8ED786",
"@. c #8ED986",
"#. c #92D783",
"$. c #A6DC9E",
"%. c #A4CFA3",
"&. c #ADCEAE",
"*. c #A6D7A5",
"=. c #ACDEAB",
"-. c #B7CEB9",
";. c #B0D0B1",
":. c #B2D3B3",
">. c #B1D5B2",
",. c #B5D0B7",
"<. c #B4DAB5",
"1. c #B5DCB6",
"2. c #B6DCB7",
"3. c #BAD0BB",
"4. c #BAD6BB",
"5. c #B9D0BC",
"6. c #BCD3BD",
"7. c #B9D7BC",
"8. c #BBDCBF",
"9. c #C6EDBC",
"0. c #BDD9C0",
"q. c #BFD9C0",
"w. c #C5DCC8",
"e. c #C6DEC8",
"r. c #D5D5D5",
"t. c #C2E3C5",
"y. c #C6E2C8",
"u. c #C8E6CB",
"i. c #CBE2CD",
"p. c #D0EDCB",
"a. c #ECECEC",
"s. c #E7F5E4",
"d. c #F5FBF3",
"f. c #F6FBF5",
"g. c #FBFCFB",
"h. c #FDFFFF",
"j. c #FFFFFF",
/* pixels */
"j.j.j.j.g.g.g.g.g.g.g.j.j.j.j.j.",
"j.j.j.j.r.| `     ` | r.j.j.j.j.",
"j.j.a.| v | ,.w.w.-.{ ( | a.j.j.",
"j.a.. ' &.c 9 * * l b ;.' . a.j.",
"j.| ' } 6 O % - > 4 w z %.] | j.",
"r.( &.6 O % - > 4 a t p x ;.( r.",
"|  .c O # = > w $.g.y g k ^  .| ",
"` 5.8 # = 1 ~ f.j.j.a k n L ,.` ",
"  w.* - K s.j.j.j.j.h m C A 8.  ",
"  i.> 2 s p.j.j.j.j.m V F U y.  ",
"` 0.i 3 w r #.f.j.j.C D G T 4.` ",
"|  .Q w r y d M 9.j.D G Y +.X.| ",
"r.( :.l y d j m Z ! H Y W 2._ r.",
"j.| [ *.K h k Z F H Y W =.{ | j.",
"j.a.o [ <./ P A U R @.2.{ o a.j.",
"j.j.a.| _ X.4.t.u.8.X._ | a.j.j.",
"j.j.j.j.r.| `     ` | r.j.j.j.j."
};
