/* XPM */
static char *copy[] = {
/* columns rows colors chars-per-pixel */
"16 15 256 2",
"   c #000000",
".  c #800000",
"X  c #008000",
"o  c #808000",
"O  c #000080",
"+  c #800080",
"@  c #008080",
"#  c #C0C0C0",
"$  c #C0DCC0",
"%  c #A6CAF0",
"&  c #3365B7",
"*  c #648FD6",
"=  c #6992D7",
"-  c #769CDA",
";  c #89A9DF",
":  c #9AB6E4",
">  c #A8C0E8",
",  c #B1C7EB",
"<  c #B8CCEC",
"1  c #C4D5F0",
"2  c #D2DFF4",
"3  c #DCE6F6",
"4  c #DFE8F7",
"5  c #E2EAF8",
"6  c #E5EDF9",
"7  c #EAF0FA",
"8  c #F0F5FC",
"9  c #F5F8FD",
"0  c #F7F9FD",
"q  c #FAFCFE",
"w  c #FDFEFF",
"e  c #FFFFFF",
"r  c #000000",
"t  c #000000",
"y  c #000000",
"u  c #000000",
"i  c #000000",
"p  c #000000",
"a  c #000000",
"s  c #000000",
"d  c #000000",
"f  c #000000",
"g  c #000000",
"h  c #000000",
"j  c #000000",
"k  c #000000",
"l  c #000000",
"z  c #000000",
"x  c #000000",
"c  c #000000",
"v  c #000000",
"b  c #000000",
"n  c #000000",
"m  c #000000",
"M  c #000000",
"N  c #000000",
"B  c #000000",
"V  c #000000",
"C  c #000000",
"Z  c #000000",
"A  c #000000",
"S  c #000000",
"D  c #000000",
"F  c #000000",
"G  c #000000",
"H  c #000000",
"J  c #000000",
"K  c #000000",
"L  c #000000",
"P  c #000000",
"I  c #000000",
"U  c #000000",
"Y  c #000000",
"T  c #000000",
"R  c #000000",
"E  c #000000",
"W  c #000000",
"Q  c #000000",
"!  c #000000",
"~  c #000000",
"^  c #000000",
"/  c #000000",
"(  c #000000",
")  c #000000",
"_  c #000000",
"`  c #000000",
"'  c #000000",
"]  c #000000",
"[  c #000000",
"{  c #000000",
"}  c #000000",
"|  c #000000",
" . c #000000",
".. c #000000",
"X. c #000000",
"o. c #000000",
"O. c #000000",
"+. c #000000",
"@. c #000000",
"#. c #000000",
"$. c #000000",
"%. c #000000",
"&. c #000000",
"*. c #000000",
"=. c #000000",
"-. c #000000",
";. c #000000",
":. c #000000",
">. c #000000",
",. c #000000",
"<. c #000000",
"1. c #000000",
"2. c #000000",
"3. c #000000",
"4. c #000000",
"5. c #000000",
"6. c #000000",
"7. c #000000",
"8. c #000000",
"9. c #000000",
"0. c #000000",
"q. c #000000",
"w. c #000000",
"e. c #000000",
"r. c #000000",
"t. c #000000",
"y. c #000000",
"u. c #000000",
"i. c #000000",
"p. c #000000",
"a. c #000000",
"s. c #000000",
"d. c #000000",
"f. c #000000",
"g. c #000000",
"h. c #000000",
"j. c #000000",
"k. c #000000",
"l. c #000000",
"z. c #000000",
"x. c #000000",
"c. c #000000",
"v. c #000000",
"b. c #000000",
"n. c #000000",
"m. c #000000",
"M. c #000000",
"N. c #000000",
"B. c #000000",
"V. c #000000",
"C. c #000000",
"Z. c #000000",
"A. c #000000",
"S. c #000000",
"D. c #000000",
"F. c #000000",
"G. c #000000",
"H. c #000000",
"J. c #000000",
"K. c #000000",
"L. c #000000",
"P. c #000000",
"I. c #000000",
"U. c #000000",
"Y. c #000000",
"T. c #000000",
"R. c #000000",
"E. c #000000",
"W. c #000000",
"Q. c #000000",
"!. c #000000",
"~. c #000000",
"^. c #000000",
"/. c #000000",
"(. c #000000",
"). c #000000",
"_. c #000000",
"`. c #000000",
"'. c #000000",
"]. c #000000",
"[. c #000000",
"{. c #000000",
"}. c #000000",
"|. c #000000",
" X c #000000",
".X c #000000",
"XX c #000000",
"oX c #000000",
"OX c #000000",
"+X c #000000",
"@X c #000000",
"#X c #000000",
"$X c #000000",
"%X c #000000",
"&X c #000000",
"*X c #000000",
"=X c #000000",
"-X c #000000",
";X c #000000",
":X c #000000",
">X c #000000",
",X c #000000",
"<X c #000000",
"1X c #000000",
"2X c #000000",
"3X c #000000",
"4X c #000000",
"5X c #000000",
"6X c #000000",
"7X c #000000",
"8X c #000000",
"9X c #000000",
"0X c #000000",
"qX c #000000",
"wX c #000000",
"eX c #000000",
"rX c #000000",
"tX c #000000",
"yX c #000000",
"uX c #000000",
"iX c #000000",
"pX c #000000",
"aX c #000000",
"sX c #000000",
"dX c #000000",
"fX c #000000",
"gX c #000000",
"hX c #000000",
"jX c #000000",
"kX c #000000",
"lX c #000000",
"zX c #000000",
"xX c #000000",
"cX c #000000",
"vX c #000000",
"bX c #000000",
"nX c #000000",
"mX c #000000",
"MX c #000000",
"NX c #000000",
"BX c #000000",
"VX c #000000",
"CX c #000000",
"ZX c #000000",
"AX c #000000",
"SX c #000000",
"DX c #FFFBF0",
"FX c #A0A0A4",
"GX c #808080",
"HX c #FF0000",
"JX c #00FF00",
"KX c #FFFF00",
"LX c #0000FF",
"PX c #FF00FF",
"IX c #00FFFF",
"UX c #FFFFFF",
/* pixels */
"# = = = = = & & # # # # # # # # ",
"# = : ; - * & , & # # # # # # # ",
"# = > : ; - & , , & # # # # # # ",
"# = < > : = = = = = = = = # # # ",
"# = 1 < > = e 2 1 , : = w = # # ",
"# = 2 1 < = e 4 2 1 , = w w = # ",
"# = 3 2 1 = e 6 4 2 1 = = = = # ",
"# = 6 3 2 = e 8 6 4 2 1 , : = # ",
"# = 7 5 3 = e 9 8 6 3 2 1 , = # ",
"# = 9 7 5 = e 0 9 8 6 3 2 1 = # ",
"# = 0 9 7 = e q 0 9 8 6 3 2 = # ",
"# = 0 9 7 = e w q 0 9 8 6 3 = # ",
"# = = = = = e e w q 0 9 8 6 = # ",
"# # # # # = e e e w q 0 9 8 = # ",
"# # # # # = = = = = = = = = = # "
};
