/* XPM */
static char *downfolder[] = {
/* columns rows colors chars-per-pixel */
"16 17 83 1",
"  c #1666A5",
". c #2676B2",
"X c #2978B3",
"o c #2F7EB8",
"O c #178DD5",
"+ c #188ED5",
"@ c #198FD5",
"# c #1990D7",
"$ c #1B95DA",
"% c #1C95DB",
"& c #1C96DC",
"* c #1E9ADE",
"= c #1F9CE0",
"- c #209BE0",
"; c #22A1E3",
": c #23A2E6",
"> c #23A6E6",
", c #27A7E7",
"< c #2CA6E3",
"1 c #23A5E8",
"2 c #25A6E9",
"3 c #26A7E9",
"4 c #25A7EA",
"5 c #26AAEB",
"6 c #26ABEB",
"7 c #27ABEB",
"8 c #27ABED",
"9 c #27AEEE",
"0 c #28ABEC",
"q c #28AEEE",
"w c #29AEEE",
"e c #29AEEF",
"r c #2AAFEF",
"t c #2CAEEE",
"y c #38A6E4",
"u c #3EAFE6",
"i c #31AFED",
"p c #2EB1EF",
"a c #38B0EA",
"s c #28AFF0",
"d c #29AFF0",
"f c #2AAFF0",
"g c #29B0F0",
"h c #2AB0F0",
"j c #2BB0F0",
"k c #32B3F0",
"l c #6399C3",
"z c #6DA2CB",
"x c #41ABE2",
"c c #4FB4E8",
"v c #5CB2E4",
"b c #5FB7E7",
"n c #52B9EC",
"m c #4ABCF2",
"M c #68B8E4",
"N c #61BAEA",
"B c #70BBE6",
"V c #73BFE9",
"C c #65C1EF",
"Z c #76C5F0",
"A c #79C9F2",
"S c #7ACCF3",
"D c #7ACCF4",
"F c #7ACDF4",
"G c #7BCDF4",
"H c #7BCDF6",
"J c #7BCEF6",
"K c #7ACFF6",
"L c #9FC4DF",
"P c #90C7E8",
"I c #91C7E8",
"U c #91C7E9",
"Y c #91C8E9",
"T c #97C9E9",
"R c #80D0F6",
"E c #A2C7E1",
"W c #ADCAE1",
"Q c #ADCAE2",
"! c #ADCBE2",
"~ c #AECBE2",
"^ c #B3D0E6",
"/ c #B4D1E7",
"( c #C0C0C0",
/* pixels */
"((((L     E(((((",
"(((( MbcnSo(((((",
"(((( x<>6So(((((",
"(((( u,6eKo(((((",
"(((( a69eKo(((((",
"(((( i9jdKo(((((",
"(((( pdjfGo(((((",
"(((( jje0Ao(((((",
"l    9e04Zooooz(",
"QXRmke04:yVBYo/(",
"(QXKt64:-%#Uo/((",
"((QXC:;=%@Yo/(((",
"(((QXN*$@Uo/((((",
"((((~Xv@P.^(((((",
"(((((QXT.^((((((",
"((((((QX^(((((((",
"(((((((((((((((("
};
