/* XPM */
static char *drvlist[] = {
/* columns rows colors chars-per-pixel */
"16 17 141 2",
"   c #252627",
".  c #505053",
"X  c #58585D",
"o  c #5B5B5E",
"O  c #5B616C",
"+  c #626463",
"@  c #676767",
"#  c #686966",
"$  c #6F6F6F",
"%  c #706F71",
"&  c #707070",
"*  c #757577",
"=  c #72727A",
"-  c #747478",
";  c #61B13C",
":  c #53EA09",
">  c #5FC030",
",  c #6D8E60",
"<  c #96D554",
"1  c #005880",
"2  c #07688F",
"3  c #127098",
"4  c #7D7F81",
"5  c #2886AD",
"6  c #2A88B0",
"7  c #2E8AB2",
"8  c #3492B9",
"9  c #3795BB",
"0  c #4A849A",
"q  c #7E8189",
"w  c #78A6BA",
"e  c #3D9AC1",
"r  c #419EC5",
"t  c #429FC5",
"y  c #44A1C7",
"u  c #45A2C8",
"i  c #46A2C9",
"p  c #4AA5CD",
"a  c #4AA6CE",
"s  c #51ADD4",
"d  c #54B0D7",
"f  c #5AB6DD",
"g  c #5CB7DF",
"h  c #70A9C1",
"j  c #68C5ED",
"k  c #868687",
"l  c #8D8D93",
"z  c #8E8F92",
"x  c #939494",
"c  c #9B959D",
"v  c #98989E",
"b  c #8DAF96",
"n  c #A2A79A",
"m  c #9A9AA1",
"M  c #9F9EA1",
"N  c #9F9EA3",
"B  c #A39DA0",
"V  c #95B3A3",
"C  c #A1A1A1",
"Z  c #A0A1A3",
"A  c #A2A2A3",
"S  c #A7A6A6",
"D  c #A6A5AA",
"F  c #A7A7AA",
"G  c #AEA5AB",
"H  c #AAA9AB",
"J  c #AAAAAA",
"K  c #ABABAB",
"L  c #ACACA9",
"P  c #AFABAF",
"I  c #ACACAC",
"U  c #AFAEAE",
"Y  c #ACBBA2",
"T  c #AEB1AC",
"R  c #A9ADB1",
"E  c #B2AEB1",
"W  c #B0AFB4",
"Q  c #B0B0B0",
"!  c #B3B4B3",
"~  c #B1B0B5",
"^  c #B4B6B6",
"/  c #B8B7BB",
"(  c #B9BAB9",
")  c #B8BABB",
"_  c #BDBBBB",
"`  c #B9B8BD",
"'  c #BEBDBD",
"]  c #A5C697",
"[  c #CDD6BF",
"{  c #B2BFC3",
"}  c #BFBDC0",
"|  c #BFBFC4",
" . c #88D3F4",
".. c #8AD4F4",
"X. c #96D7F4",
"o. c #9AD8F4",
"O. c #A6D4E8",
"+. c #A2DAF4",
"@. c #ADDEF4",
"#. c #B0DFF4",
"$. c #B8E1F4",
"%. c #C0C0C0",
"&. c #C3C3C3",
"*. c #C1C2C6",
"=. c #C6C5C6",
"-. c #C6C6C7",
";. c #C4C5C8",
":. c #C6C7C9",
">. c #C8C8C8",
",. c #CBCBCB",
"<. c #C9C9CC",
"1. c #CAC9CC",
"2. c #CECDCE",
"3. c #CECECE",
"4. c #CFD1D2",
"5. c #D0D0D0",
"6. c #D2D2D4",
"7. c #D3D4D6",
"8. c #D6D5D5",
"9. c #D5D6D8",
"0. c #D6D6D9",
"q. c #D8D8D8",
"w. c #DBDBDC",
"e. c #DEDEDD",
"r. c #DFDEDF",
"t. c #E0DEDF",
"y. c #D9F7C9",
"u. c #D8D9E5",
"i. c #C9E7F4",
"p. c #E1E5E5",
"a. c #E4E5E6",
"s. c #E6E5E6",
"d. c #EBEBEB",
"f. c #ECECEC",
"g. c #EEECEC",
"h. c #EFEDED",
"j. c #EEEEEE",
"k. c #EFEFEF",
"l. c #F2F2F1",
"z. c #F3F3F3",
"x. c #FFFFFF",
/* pixels */
"%.%.d.J I ^ ! 3.} %.%.%.%.%.%.%.",
"%.w.C >.e.j.j.3.Q %.%.%.%.%.%.%.",
"l.n P _ 3.s.t.( w f f f f f f O.",
"[ < b R 1.6.F N 8 i.$.$.+.X.X.y ",
"T Y V { J k 4   8 @...j d a r 7 ",
"C c G } C x.z 4.8 X.g r 9 6 5 2 ",
"-.B E S ) :.q O a  .s u y e y 1 ",
"z.% x J ' 8.k.p.0 3 3 3 3 3 3 h ",
"' -.# L %.q.j.1.I h.j.e.:.6.s.} ",
"1./ F * # $ % N ~ ~ W W W W ) 1.",
"= | 0.x.x.x.x.x.x.x.x.x.y.0.*.= ",
"= ) 0.u.u.u.u.u.u.u.u.- > + W = ",
"= W 0.u.u.u.u.u.u.u.u., : . W = ",
"= W 0.u.u.u.u.u.u.u.u.- ; o W = ",
"m o R ~ W W W W W W W W ] R o m ",
"<.l = = = = = = = = = = = = v <.",
"} %.%.%.%.%.%.%.%.%.%.%.%.%.%.%."
};
