/* XPM */
static const char *environment[] = {
/* columns rows colors chars-per-pixel */
"16 17 175 2",
"   c #56728B",
".  c #688198",
"X  c #6C8498",
"o  c #69849E",
"O  c #708AA2",
"+  c #718BA2",
"@  c #738DA9",
"#  c #7792AE",
"$  c #7F95A8",
"%  c #7893AC",
"&  c #7B95AD",
"*  c #7894AE",
"=  c #7D96AC",
"-  c #8099B1",
";  c #819BB3",
":  c #879EB1",
">  c #839FB4",
",  c #839EB6",
"<  c #839FB8",
"1  c #85A1BA",
"2  c #85A2BB",
"3  c #86A1BC",
"4  c #84A2BC",
"5  c #86A3BC",
"6  c #87A2BE",
"7  c #87A5BE",
"8  c #88A2BA",
"9  c #89A3BB",
"0  c #8AA6BF",
"q  c #8CA7BF",
"w  c #8FA7BE",
"e  c #8FA8BE",
"r  c #96A9BB",
"t  c #90AABF",
"y  c #92AABF",
"u  c #9DAFBE",
"i  c #9EAFBE",
"p  c #8AA6C0",
"a  c #8BAAC3",
"s  c #8EA8C0",
"d  c #90AAC3",
"f  c #95AEC3",
"g  c #92ABC4",
"h  c #95AEC4",
"j  c #97AFC5",
"k  c #94AEC6",
"l  c #94AEC7",
"z  c #94AFC7",
"x  c #99AFC7",
"c  c #96B0C5",
"v  c #97B0C7",
"b  c #9BB2C7",
"n  c #9AB3C7",
"m  c #9DB3C6",
"M  c #95B0C8",
"N  c #95B1C9",
"B  c #96B0C9",
"V  c #97B2C9",
"C  c #9AB3CB",
"Z  c #99B4CB",
"A  c #9BB5CB",
"S  c #9CB5CB",
"D  c #9AB5CC",
"F  c #9DB7CC",
"G  c #9FB7CF",
"H  c #9DB8D0",
"J  c #9FBAD0",
"K  c #A3B4C2",
"L  c #A2B7CA",
"P  c #A2B7CB",
"I  c #A1B9CD",
"U  c #A3B9CC",
"Y  c #A0BACF",
"T  c #A5B9CD",
"R  c #A5BACC",
"E  c #A6BCCE",
"W  c #A8BCCE",
"Q  c #A7BED3",
"!  c #A9BFD2",
"~  c #AABFD2",
"^  c #ABBFD3",
"/  c #B6C3CE",
"(  c #B8C4CE",
")  c #A7C1D4",
"_  c #A7C0D5",
"`  c #AEC2D3",
"'  c #A9C0D5",
"]  c #ABC1D4",
"[  c #AAC2D7",
"{  c #AAC3D7",
"}  c #ADC4D5",
"|  c #AAC3D9",
" . c #ABC4D9",
".. c #AEC5DA",
"X. c #ADC6DA",
"o. c #AFC6DC",
"O. c #B2C5D5",
"+. c #BBC6D1",
"@. c #BBC8D3",
"#. c #BECAD5",
"$. c #B2C5D9",
"%. c #B3C8DA",
"&. c #B2C8DD",
"*. c #B7CCDD",
"=. c #B6CCDE",
"-. c #BACADA",
";. c #B8CBDD",
":. c #B9CDDF",
">. c #BBCDDF",
",. c #BBCEDE",
"<. c #BCCEDD",
"1. c #B6CBE0",
"2. c #B7CDE3",
"3. c #BACEE2",
"4. c #BCCFE0",
"5. c #BDCFE1",
"6. c #BDD1E4",
"7. c #BDD0E6",
"8. c #BDD1E6",
"9. c #C0C0C0",
"0. c #C0CBD6",
"q. c #C1D0DE",
"w. c #C7D2DC",
"e. c #C8D3DD",
"r. c #C4D4E0",
"t. c #C0D3E4",
"y. c #C0D3E5",
"u. c #C3D6E7",
"i. c #C4D7E7",
"p. c #C9D7E2",
"a. c #C8D6E3",
"s. c #CBD9E4",
"d. c #CCD9E5",
"f. c #CDDAE5",
"g. c #CFDAE4",
"h. c #C4D6E8",
"j. c #C6D9E9",
"k. c #CADBEC",
"l. c #CBDCEC",
"z. c #CDDFEE",
"x. c #CEDFEF",
"c. c #D2DDE7",
"v. c #D4DEE7",
"b. c #D6DEE6",
"n. c #D7E0E8",
"m. c #D7E2EA",
"M. c #DBE2E9",
"N. c #DDE3EA",
"B. c #DBE5EC",
"V. c #DEE6ED",
"C. c #DFE6ED",
"Z. c #DDE6EE",
"A. c #DEE7EF",
"S. c #DFE8EF",
"D. c #D0E2F2",
"F. c #D2E2F2",
"G. c #E4EAEF",
"H. c #E0E9F0",
"J. c #E2EAF0",
"K. c #E7EDF3",
"L. c #ECEFF2",
"P. c #EAEFF4",
"I. c #ECF1F5",
"U. c #EFF2F5",
"Y. c #F1F3F5",
"T. c #F3F6F8",
"R. c #F5F8FA",
"E. c #F6F8FA",
"W. c #F8FAFB",
"Q. c #FAFBFC",
"!. c #FBFBFC",
"~. c #FCFCFD",
"^. c #FCFDFD",
"/. c #FDFDFE",
"(. c #FDFEFE",
/* pixels */
"9.9.9.9.9.9.9.' S 9.9.9.9.9.9.9.",
"9.9.9.J.) Z.R.G A P.d.f G.9.9.9.",
"9.W 9.Z.J X.&.8.2.z z w n.9.9.9.",
"9.K.K.J.X.z.k.k.u.=.} A a.Z.N.9.",
"!.R ' 3.D.,.n , 3 S U ] C 3 @ 9.",
"(.0.{ z.,.> u L.U.W N O.` 3 K 9.",
"9.E.A D.d ( 9.9.9.9.e.N E 3 (.9.",
"<.%.X.6.% 9.9.9.9.9.I.a R 3 , r ",
"J | 8.y.- 9.9.9.9.9.T.0 U 3 * O ",
"9.J.' i.c e.9.9.9.9.a.w U $ M.9.",
"9.B.o.j.:.x Z.9.9.m.0 z L = b.9.",
"!.z N 1.i.5.Q S A d e m w # o Q.",
"9.s.d.~ ' t.:.=.$.~ f 9 y w.#.9.",
"9.9.9.c.d z n P n 9 - + #.9.9.9.",
"9.9.9.q.3 -.c.& X @.u   +.9.9.9.",
"9.9.9.9.c.Q.9.: . 9.Y.( (.9.9.9.",
"9.9.9.9.9.9.9.9.9.9.9.9.9.9.9.9."
};
