/* XPM */
static const char *favorit[] = {
/* columns rows colors chars-per-pixel */
"16 17 199 2",
"   c #AC6424",
".  c #BE7325",
"X  c #D35C1B",
"o  c #DF680D",
"O  c #C47F1D",
"+  c #E3750F",
"@  c #E27B17",
"#  c #EC741C",
"$  c #E27C1B",
"%  c #C46F26",
"&  c #C07C31",
"*  c #C77B42",
"=  c #D67244",
"-  c #E07E56",
";  c #B5933F",
":  c #EC8F17",
">  c #E8901C",
",  c #F2A61F",
"<  c #C88C22",
"1  c #C6832F",
"2  c #D2852C",
"3  c #CA993C",
"4  c #CB9B3D",
"5  c #DA9A3A",
"6  c #E3832D",
"7  c #F58024",
"8  c #EE9D27",
"9  c #ED952F",
"0  c #D5AF2D",
"q  c #D6B634",
"w  c #FBA931",
"e  c #F6A238",
"r  c #F7BA3C",
"t  c #F9C423",
"y  c #FFD72B",
"u  c #FED42C",
"i  c #FFDE33",
"p  c #FFE731",
"a  c #FFE13A",
"s  c #FFF531",
"d  c #D08940",
"f  c #E3844A",
"g  c #E5884D",
"h  c #EC9D51",
"j  c #F0965C",
"k  c #F59A5D",
"l  c #CAA341",
"z  c #C8A143",
"x  c #CBA442",
"c  c #CBA543",
"v  c #CCA544",
"b  c #CCA645",
"n  c #CDA747",
"m  c #CEA74D",
"M  c #CFA94A",
"N  c #D1A447",
"B  c #DCAE44",
"V  c #D0AB4D",
"C  c #D4B544",
"Z  c #D2AD50",
"A  c #D4AF53",
"S  c #D5B156",
"D  c #D5B257",
"F  c #D7B359",
"G  c #D7B45B",
"H  c #D7B45E",
"J  c #D8B55C",
"K  c #D9B65E",
"L  c #DBB962",
"P  c #D8BD62",
"I  c #D9BD63",
"U  c #D8BF62",
"Y  c #DDBB66",
"T  c #DCBE67",
"R  c #D5B469",
"E  c #DFBD6A",
"W  c #DFBE6A",
"Q  c #CFA67B",
"!  c #FFDB4D",
"~  c #FFE143",
"^  c #FFEA47",
"/  c #D3CB6A",
"(  c #DEC073",
")  c #DECA70",
"_  c #D6CE7D",
"`  c #E0C06E",
"'  c #E1C06E",
"]  c #E2C271",
"[  c #E4C474",
"{  c #E4C575",
"}  c #E0CD75",
"|  c #E0CE77",
" . c #E1C379",
".. c #E5C678",
"X. c #E6C779",
"o. c #E7C87A",
"O. c #E8C97C",
"+. c #E8CA7D",
"@. c #E9CB7F",
"#. c #E2D17A",
"$. c #E2D27C",
"%. c #E3D37D",
"&. c #FCE979",
"*. c #FFE87D",
"=. c #FFF574",
"-. c #E59D90",
";. c #CAAF87",
":. c #D2BD8D",
">. c #CEC184",
",. c #D0C487",
"<. c #D3C58D",
"1. c #D1C68C",
"2. c #D4C88F",
"3. c #D5CB92",
"4. c #D0C49A",
"5. c #DED395",
"6. c #E9CB80",
"7. c #EACD82",
"8. c #EBCD82",
"9. c #ECCE84",
"0. c #ECCF86",
"q. c #E4D480",
"w. c #E5D581",
"e. c #E5D682",
"r. c #E6D784",
"t. c #EBD086",
"y. c #EDD087",
"u. c #E7D986",
"i. c #EDD389",
"p. c #EDD18C",
"a. c #E8DA88",
"s. c #E8DB89",
"d. c #E9DB8A",
"f. c #EADD8D",
"g. c #EBDE8E",
"h. c #E2CC93",
"j. c #E4CF99",
"k. c #EED491",
"l. c #EDDB90",
"z. c #EBDF90",
"x. c #F0DF9A",
"c. c #FFFF8B",
"v. c #ECE091",
"b. c #EDE294",
"n. c #EDE395",
"m. c #EEE396",
"M. c #EFE498",
"N. c #F0E69A",
"B. c #F0E79B",
"V. c #F4E39D",
"C. c #F1E89D",
"Z. c #F1E89E",
"A. c #D9CBBB",
"S. c #F2CCA0",
"D. c #F4DFAA",
"F. c #EEDEB7",
"G. c #EDDEB8",
"H. c #F3DEB3",
"J. c #F2EAA0",
"K. c #F3EBA1",
"L. c #F3ECA3",
"P. c #F4ECA4",
"I. c #F5EEA6",
"U. c #F5EFA7",
"Y. c #F5EAA9",
"T. c #F6EFA8",
"R. c #F7EFAA",
"E. c #F6F0A9",
"W. c #F7F1AB",
"Q. c #F7F2AC",
"!. c #F8F2AD",
"~. c #F8F3AE",
"^. c #F9F4AF",
"/. c #EEE1B5",
"(. c #F1EBB3",
"). c #F7F0B1",
"_. c #F8F1B3",
"`. c #F9F5B0",
"'. c #FAF5B1",
"]. c #FAF7B3",
"[. c #FBF7B4",
"{. c #FAF4B8",
"}. c #FAF6BE",
"|. c #FFFFB9",
" X c #C0C0C0",
".X c #F1CBC2",
"XX c #F4D2C5",
"oX c #F6DBCF",
"OX c #F8DFD1",
"+X c #FDFAC2",
"@X c #F5ECD6",
"#X c #FCFAD4",
"$X c #FDFBD6",
"%X c #FCF9DD",
"&X c #FDFADE",
"*X c #F4F2ED",
"=X c #FCF4F3",
"-X c #FCF9F2",
";X c #FEFDFD",
/* pixels */
" Xk.p.7.6.O.X.{ ] ( E  .F. X X X",
" Xy.V.i.0.x.5.}.+X}.+X_.W  X X X",
" Xy.[.[.R.l.Y 3.(.$X#X[.L  X X X",
" Xy.[.[.].Q.L 1.2.&X&X_.F  X X X",
" X0.].^.!.E.K ,.3.k j Y.S  X X X",
" X0.^.!.I.I.F >.:.# # D.L  X X X",
" X7.W.I.L.C.F 4.Q w e S.F.j. X X",
" X@.I.K.C.M.A ;.* c.&.h H.v oXoX",
" X+.J.B.m.v.Z % m |.=.r 9 > o - ",
" Xo.M.n.v.d.m / ( c.! ^ a , f XX",
" X..v.z.d.r.M 1 C ! i u 8 2  X X",
" X{ f.s.e.%.m . q p s t f x  X X",
" X' u.e.%.| n < 0 + : u 6 3  X X",
" X( %.#.) ) x < % B 5 $ @ 3  X X",
"A.( ( K P P l   ; x z 3 X = ;X X",
" X-X@X/.h.R z A.*X X X X.X-.=X X",
" X X X X X X X X X X X X X X X X"
};
