/* XPM */
static const char *file_combine[] = {
/* columns rows colors chars-per-pixel */
"16 17 47 1",
"  c #606014",
". c #646419",
"X c #696920",
"o c #6F6F29",
"O c #707028",
"+ c #76762C",
"@ c #747430",
"# c #7C7C31",
"$ c #787835",
"% c #838336",
"& c #8B8B3C",
"* c #D6D63D",
"= c #929241",
"- c #9A9A47",
"; c #A1A14D",
": c #A8A852",
"> c #AEAE56",
", c #B2B259",
"< c #B3B35A",
"1 c #B5B55C",
"2 c #B7B75D",
"3 c #9A9A78",
"4 c #9C9C7A",
"5 c #AEAD6F",
"6 c #B2B274",
"7 c #B7B779",
"8 c #B6CE4D",
"9 c #B0CC50",
"0 c #C5D34B",
"q c #DCDC43",
"w c #D2DA4B",
"e c #E2E249",
"r c #FFFF66",
"t c #4A84C1",
"y c #8B8A8A",
"u c #999898",
"i c #B6B693",
"p c #BBBB9A",
"a c #8AA2BE",
"s c #CDCD8F",
"d c #C0C0C0",
"f c #DFDFDF",
"g c #E0E0E0",
"h c #E5E5E5",
"j c #E5E6E6",
"k c #FEFEFE",
"l c #FFFFFF",
/* pixels */
"lllllldddddddjll",
"lllllldllllldlfl",
"lllldddddddjdddl",
"lllldllllldlgldi",
"lldddddddjdddl3o",
"lldllllldlgldp@.",
"lldllllldddl4$7.",
"lldlaatllldf$s7 ",
"lldllllllld$7s5 ",
"l22<>:;-=&%s6sOl",
"l2errrrrrres5Oul",
"l2qrww089rqsOyyl",
"l<*rrrrrrr*Oulll",
"l>:--=&%#+Oyylll",
"llulllllllulllll",
"llyyyyyyyyylllll",
"llllllllllllllll"
};
