/* XPM */
static const char *file_split[] = {
/* columns rows colors chars-per-pixel */
"16 17 20 1",
"  c #423D33",
". c #546579",
"X c #008F5E",
"o c #468570",
"O c #385F9D",
"+ c #6A7781",
"@ c #7D8EA1",
"# c #10C9B5",
"$ c #5D8BD1",
"% c #74D1D4",
"& c #80B8B2",
"* c #A0A0A4",
"= c #B3BDC8",
"- c #8DC6C6",
"; c #BEC7D0",
": c #91D0F1",
"> c #D9DEE3",
", c #D4FDFF",
"< c #E5FFFF",
"1 c #FFFFFF",
/* pixels */
">;;;;>**********",
";1111@*.......**",
";1%-1@**********",
";1X#1@*$$$$$$$**",
";1111@**********",
">@@@@=**********",
";1111@*.......**",
";1:+1@**********",
";1O 1@*$$$$$$$**",
";1111@**********",
">@@@@=**********",
";1111@*.......**",
";1,<1@**********",
";1o&1@*$$$$$$$**",
";1111@**********",
">@@@@=**********",
"****************"
};
