/* XPM */
static const char *fileedit[] = {
/* columns rows colors chars-per-pixel */
"16 17 198 2",
"   c #23723F",
".  c #216F42",
"X  c #2B7749",
"o  c #30774E",
"O  c #30794E",
"+  c #397652",
"@  c #5D5E60",
"#  c #737373",
"$  c #2A9E44",
"%  c #2BA046",
"&  c #2BA147",
"*  c #2CA247",
"=  c #2CA348",
"-  c #2FB146",
";  c #35BA44",
":  c #3EC947",
">  c #42CB4B",
",  c #46CD4F",
"<  c #4BD054",
"1  c #4DD156",
"2  c #62DF5B",
"3  c #5EE453",
"4  c #61E854",
"5  c #60E358",
"6  c #6ADC65",
"7  c #FFC823",
"8  c #BBA357",
"9  c #0709A1",
"0  c #0D0EA5",
"q  c #1516AC",
"w  c #181ABA",
"e  c #1F20B3",
"r  c #2A2BBA",
"t  c #576DB3",
"y  c #6575B6",
"u  c #3537C3",
"i  c #3E42EC",
"p  c #4A4BC3",
"a  c #4143CB",
"s  c #4D4FD3",
"d  c #585AD9",
"f  c #5A5EDB",
"g  c #5F62DE",
"h  c #6565C9",
"j  c #6969CB",
"k  c #6E6FD0",
"l  c #6466DF",
"z  c #7575D7",
"x  c #7276DF",
"c  c #7B7CDD",
"v  c #4749E4",
"b  c #4D4EE6",
"n  c #4C50EC",
"m  c #5355E4",
"M  c #5A5DED",
"N  c #686CE0",
"B  c #6669EE",
"V  c #7276E6",
"C  c #7477E4",
"Z  c #7D7FE0",
"A  c #797BE6",
"S  c #6E73F0",
"D  c #7275F0",
"F  c #777DF5",
"G  c #787EF6",
"H  c #797EF6",
"J  c #7B7FF6",
"K  c #7F82F1",
"L  c #7B80F6",
"P  c #7C81F5",
"I  c #7C81F6",
"U  c #9A99BB",
"Y  c #EADAB7",
"T  c #A6B1D2",
"R  c #A7B0D5",
"E  c #ADBAD1",
"W  c #8182E2",
"Q  c #8184E9",
"!  c #9595E2",
"~  c #9292E4",
"^  c #9091EB",
"/  c #9092EB",
"(  c #9193EB",
")  c #9497EF",
"_  c #9C9EEC",
"`  c #9D9EEC",
"'  c #8488F0",
"]  c #898AF2",
"[  c #9B9FF3",
"{  c #9CA1F3",
"}  c #9CA2F3",
"|  c #9BA0F5",
" . c #9DA0F5",
".. c #9EA2F4",
"X. c #9EA2F5",
"o. c #9CA0F6",
"O. c #A5A8E1",
"+. c #ACAFE6",
"@. c #A1A3ED",
"#. c #A4A5EF",
"$. c #A7A8EF",
"%. c #ACABEF",
"&. c #ABADED",
"*. c #AFAFEF",
"=. c #ADB1E7",
"-. c #B9BBE7",
";. c #B0B4E8",
":. c #B1B4E8",
">. c #B0B0EF",
",. c #B1B1EF",
"<. c #B2B2EF",
"1. c #BABCE8",
"2. c #A0A5F6",
"3. c #A7A9F4",
"4. c #A6A9F6",
"5. c #A7AAF6",
"6. c #A8ABF6",
"7. c #ABAEF7",
"8. c #ADAFF7",
"9. c #AFB1F8",
"0. c #B3B5F1",
"q. c #B7B9F0",
"w. c #BCBFF0",
"e. c #B0B2F8",
"r. c #BCBEF8",
"t. c #BFC1F1",
"y. c #C0C0C0",
"u. c #C9E4CD",
"i. c #C2C3E9",
"p. c #C6C7EF",
"a. c #C8CAE9",
"s. c #CDCFEB",
"d. c #CECFEB",
"f. c #C9C8EF",
"g. c #CCCFEC",
"h. c #CDCEEF",
"j. c #CFD0EB",
"k. c #D3D4EC",
"l. c #D2D5EF",
"z. c #D4D5EF",
"x. c #D8D9EC",
"c. c #DADBED",
"v. c #DDDDED",
"b. c #C2C4F3",
"n. c #C3C5F3",
"m. c #C4C6F5",
"M. c #C5C6F7",
"N. c #C6C8F6",
"B. c #CBCDF7",
"V. c #CCCEF7",
"C. c #CECFF7",
"Z. c #CED0F7",
"A. c #CFD1F7",
"S. c #D1D3F7",
"D. c #D3D3F6",
"F. c #D2D3F7",
"G. c #D5D6F5",
"H. c #D6D7F4",
"J. c #D7D9F2",
"K. c #D8D9F2",
"L. c #DADAF3",
"P. c #DCDDF2",
"I. c #DDDEF3",
"U. c #D9DAF6",
"Y. c #DFDFF4",
"T. c #DDDFF6",
"R. c #DEDDF8",
"E. c #DFE0FA",
"W. c #E1E1EE",
"Q. c #E1E2F2",
"!. c #E0E1F5",
"~. c #E1E2F4",
"^. c #E2E3F5",
"/. c #E0E2F6",
"(. c #E5E4F5",
"). c #E6E7F4",
"_. c #EAEAF2",
"`. c #ECECF3",
"'. c #EAE9F5",
"]. c #EBEDF4",
"[. c #EBECF5",
"{. c #EDEEF4",
"}. c #EDEEF5",
"|. c #ECECF6",
" X c #ECEEF6",
".X c #EDEEF6",
"XX c #E5E5FA",
"oX c #EAEAFB",
"OX c #EFEEF8",
"+X c #EFEEFB",
"@X c #F1F1F5",
"#X c #F2F2F5",
"$X c #F1F1FC",
"%X c #F3F2FC",
"&X c #F5F4FC",
"*X c #F6F5FC",
"=X c #F7F6FD",
"-X c #F8F7FD",
/* pixels */
"^ ^ ^ t.y.y.y.y.y.y.y.y.y.- - u.",
"_  XE.M.) y.y.y.y.y.y.y.- 6 1 - ",
"_  XE.N.2.' r.Z.C.C.C.- 5 < *   ",
"_ ].J.b.2.I 5.B.C.F.- 5 , * . t ",
"_ ].l.=.{ P 5.B.F.- 4 > $ X y m ",
"_ `.j.:...H 5.C.- 4 : $ O E ~ v ",
"_ #X^.t.} I 5.# 7 ; $ o T D.! b ",
"_ _.a.O.} J 6.# Y 8 + R f.R.3.] ",
"_ @XP.m.} H @ @ # U =.n.P.$X%.Q ",
"_ `.H.=.} F 3.-.1.i.d.c.Q.&X8.D ",
"_ `.d.=.[ H 7.V.d.k.x.v.W.&X>.B ",
"_ @X^.w.[ H 9.G.L.Y.(.'.OX*X<.M ",
"&.`.L.M.[ H 9.H.H.Y.^.).|.-X>.b ",
"x f g N V S e.R.XXoX+X%X*X-X>.i ",
"@.1.0.2.Q C A W Z c z k j h p w ",
"y.y.y.y.y.r.l d s a u r e q 0 9 ",
"y.y.y.y.y.y.y.y.y.y.y.y.y.y.y.y."
};
