/* XPM */
static char *find[] = {
/* columns rows colors chars-per-pixel */
"16 17 194 2",
"   c #6C6B68",
".  c #7A7A78",
"X  c #7B7C7B",
"o  c #7D7F7B",
"O  c #AA9342",
"+  c #B49341",
"@  c #B69644",
"#  c #A39464",
"$  c #A49772",
"%  c #C0A647",
"&  c #CAA341",
"*  c #CAA441",
"=  c #CBA442",
"-  c #CBA543",
";  c #CCA544",
":  c #CCA645",
">  c #CDA645",
",  c #CDA747",
"<  c #CAA548",
"1  c #C3A84A",
"2  c #CFA94A",
"3  c #D0AB4D",
"4  c #DBBD4C",
"5  c #D2AD50",
"6  c #D4AF53",
"7  c #D1AF5A",
"8  c #CEB654",
"9  c #D5B257",
"0  c #D7B45B",
"q  c #D8B55C",
"w  c #D9B65E",
"e  c #C7B260",
"r  c #CAB769",
"t  c #CAB76B",
"y  c #DBB962",
"u  c #D8BD62",
"i  c #D9BD63",
"p  c #D8BF62",
"a  c #DDBB66",
"s  c #DCBE67",
"d  c #DFBD6A",
"f  c #DFBE6A",
"g  c #CEBD73",
"h  c #CCBD74",
"j  c #D8BA70",
"k  c #DEC14E",
"l  c #DFC352",
"z  c #E0C556",
"x  c #CEC17E",
"c  c #DEC073",
"v  c #DECA70",
"b  c #D0C17D",
"n  c #E0C06E",
"m  c #E1C06E",
"M  c #E2C271",
"N  c #E4C474",
"B  c #E4C575",
"V  c #E0CD75",
"C  c #E0CE77",
"Z  c #E1C379",
"A  c #E5C678",
"S  c #E6C779",
"D  c #E7C87A",
"F  c #E8C97C",
"G  c #E8CA7D",
"H  c #E9CB7F",
"J  c #E2D17A",
"K  c #E2D27C",
"L  c #E3D37D",
"P  c #8F8E8C",
"I  c #908D82",
"U  c #959381",
"Y  c #969A84",
"T  c #90958C",
"R  c #8A9199",
"E  c #969798",
"W  c #9A9A9B",
"Q  c #A49D86",
"!  c #BDB68B",
"~  c #B2B69F",
"^  c #929AA3",
"/  c #929EA8",
"(  c #9DA3A7",
")  c #93A0AD",
"_  c #85A1B2",
"`  c #99A6B4",
"'  c #A0A0A2",
"]  c #A0A7AB",
"[  c #BFB7A9",
"{  c #AEAFB2",
"}  c #C2BBAE",
"|  c #BBCFB1",
" . c #BDC6BF",
".. c #D1C687",
"X. c #D3C787",
"o. c #D3C98F",
"O. c #D6CA8F",
"+. c #CBC396",
"@. c #D4CD95",
"#. c #D4CC96",
"$. c #D7CE96",
"%. c #D4D59C",
"&. c #D8D19A",
"*. c #E9CB80",
"=. c #EACD82",
"-. c #EBCD82",
";. c #ECCE84",
":. c #ECCF86",
">. c #E4D480",
",. c #E5D581",
"<. c #E5D682",
"1. c #E6D784",
"2. c #EBD086",
"3. c #EDD087",
"4. c #E7D986",
"5. c #EDD389",
"6. c #EED28F",
"7. c #E8DA88",
"8. c #E8DB89",
"9. c #E9DB8A",
"0. c #EADD8D",
"q. c #EBDE8E",
"w. c #E2CC93",
"e. c #EED492",
"r. c #EDDB90",
"t. c #EBDF90",
"y. c #E1D69A",
"u. c #F0DF9A",
"i. c #ECE091",
"p. c #EDE294",
"a. c #EDE395",
"s. c #EEE396",
"d. c #EFE498",
"f. c #F0E69A",
"g. c #F0E79B",
"h. c #F4E39D",
"j. c #F1E89D",
"k. c #F1E89E",
"l. c #CAD5BD",
"z. c #E7D5A9",
"x. c #EEDEB7",
"c. c #EDDEB8",
"v. c #E9E2AC",
"b. c #F2EAA0",
"n. c #F3EBA1",
"m. c #F3ECA3",
"M. c #F4ECA4",
"N. c #F5EEA6",
"B. c #F5EFA7",
"V. c #F6EFA8",
"C. c #F7EFAA",
"Z. c #F6F0A9",
"A. c #F7F1AB",
"S. c #F7F2AC",
"D. c #F8F2AD",
"F. c #F8F3AE",
"G. c #F9F4AF",
"H. c #F1EDB5",
"J. c #F8F1B3",
"K. c #F9F5B0",
"L. c #FAF5B1",
"P. c #FAF7B3",
"I. c #FBF7B4",
"U. c #FAF4B7",
"Y. c #FBF7BB",
"T. c #FAF6BE",
"R. c #FCF9BF",
"E. c #99BAC3",
"W. c #89B2DB",
"Q. c #B4CBCD",
"!. c #BAD1DB",
"~. c #ADCAE2",
"^. c #B4CEE2",
"/. c #CBD1C4",
"(. c #D6D7C4",
"). c #DBDAD9",
"_. c #E0DBCF",
"`. c #D0E2D8",
"'. c #DDE2DA",
"]. c #FDFAC2",
"[. c #F5ECD6",
"{. c #C1D7E5",
"}. c #CFDAE6",
"|. c #CFE9FF",
" X c #CFECFF",
".X c #E5E5E5",
"XX c #E7E7E6",
"oX c #EAEAEA",
"OX c #ECEBEB",
"+X c #EBF0F0",
"@X c #F5F4F0",
"#X c #F2FAF4",
"$X c #FCF9F2",
"%X c #FFFFFF",
/* pixels */
"%Xe.6.=.H F A N M m d Z x.%X%X%X",
"%X3.h.5.:.u.y.T.].].].J.j %X%X%X",
"%X3.I.I.C.q.a $.H.].Y.U.w %X%X%X",
"%X3.I.I.P.D.y @.$.U.! / ( ( ).%X",
"%X:.P.G.D.Z.w @.@.+._ !.#X{./ OX",
"%X:.G.D.N.N.0 ....Y E.`.Q.|.^.{ ",
"%X=.A.N.m.j.9 x g T | l.(.'.|.W ",
"%XH N.n.j.d.6 h g U Q.%.v.#.^.W ",
"%XG m.d.s.i.5 t t Q ` /.OX[ R '.",
"%XD d.s.t.9.3 e $ ' X I E o XX%X",
"%XA s.0.9.1.2 # } P z z oX- %X%X",
"%XN 0.7.<.L > [ X 8 k k }.- %X%X",
"%XM 4.<.K V >   O k k k W.< %X%X",
"%Xn L K V v - % 1 k k k 4 9 %X%X",
"%Xd s p y p & + @ - & & 7 z.%X%X",
"%X$X[.c.$.d - ).@X%X%X%X%X%X%X%X",
"%X%X%X%X%X%X%X%X%X%X%X%X%X%X%X%X"
};
