/* XPM */
static const char *funckey[] = {
/* columns rows colors chars-per-pixel */
"16 17 109 2",
"   c #7B4F1F",
".  c #604521",
"X  c #4B505C",
"o  c #555A66",
"O  c #53636C",
"+  c #5B6469",
"@  c #4C697D",
"#  c #626362",
"$  c #6E737D",
"%  c #727378",
"&  c #886037",
"*  c #A06E2F",
"=  c #A96D2B",
"-  c #8F7F6D",
";  c #C68331",
":  c #CD8F36",
">  c #D39239",
",  c #D3943A",
"<  c #958665",
"1  c #87877F",
"2  c #D59941",
"3  c #D49C45",
"4  c #C19557",
"5  c #ECBE58",
"6  c #ECC05A",
"7  c #E9C564",
"8  c #F9DC7E",
"9  c #4880A7",
"0  c #6289A5",
"q  c #7792A6",
"w  c #6493B4",
"e  c #6B9AB6",
"r  c #78A3BB",
"t  c #1E8ED8",
"y  c #3B8EC7",
"u  c #218FD7",
"i  c #2590D6",
"p  c #2497DB",
"a  c #279BE0",
"s  c #279CE0",
"d  c #2CAAED",
"f  c #2EACF0",
"g  c #3AB8F7",
"h  c #4696CD",
"j  c #419ED9",
"k  c #57B0DD",
"l  c #46A9E5",
"z  c #5AB9E9",
"x  c #50BFFC",
"c  c #34C1FE",
"v  c #4CC4FD",
"b  c #47CCFF",
"n  c #50C1F7",
"m  c #56CAFF",
"M  c #58CDFF",
"N  c #828793",
"B  c #898D9F",
"V  c #96959A",
"C  c #94959D",
"Z  c #A6A09A",
"A  c #91A3AF",
"S  c #9DA2AF",
"D  c #8CAABF",
"F  c #A3A7AE",
"G  c #B7ADAC",
"H  c #A0A5B7",
"J  c #A4AFB7",
"K  c #A3A8B8",
"L  c #A3A8B9",
"P  c #AFB1B6",
"I  c #A7B6BE",
"U  c #A9B5BD",
"Y  c #ABB7BF",
"T  c #DBB280",
"R  c #F5D884",
"E  c #F9E285",
"W  c #FCEA8D",
"Q  c #AEB0C1",
"!  c #AAB0C4",
"~  c #B0B1C7",
"^  c #B4BBC0",
"/  c #B6BDC2",
"(  c #B2BEC6",
")  c #B8B8D0",
"_  c #B9BCD5",
"`  c #B0C2CE",
"'  c #C0C9CF",
"]  c #C5C7D3",
"[  c #C1C3D6",
"{  c #D5D9DD",
"}  c #C5CCE0",
"|  c #CACAE5",
" . c #CED0EC",
".. c #D9DDE0",
"X. c #DDDCE1",
"o. c #D3D3EA",
"O. c #CED3F5",
"+. c #DFE3E6",
"@. c #E5E6EB",
"#. c #EAEAEB",
"$. c #EFEFEF",
"%. c #E0E2F7",
"&. c #E4E3FA",
"*. c #F0F0F3",
"=. c #F4F5F6",
"-. c #FCF9F6",
";. c #FAFAFA",
":. c #FEFEFE",
">. c #FFFFFF",
/* pixels */
">.>.>.>.>.>.>.J w D +.>.>.>.>.>.",
">.>.>.>.>.>.>.>.^ y h Y >.>.>.>.",
"*.L L ] X.>.>.>.>./ j l Y >.>.>.",
"@.$ >.F % ; ; T -.>.e x k #.>.>.",
"=.H 1 < # X G ; T >.( m b I >.>.",
"N ! >.4 >.S X R * ' ` v c r { { ",
"N ] C Z C _ X W . z M g d s i A ",
"N [ O.o.&.O.X 7 ; + n f p u q >.",
">.N ) | %.X & > 8   O a t 0 ;.>.",
">.>.N Q o >.>.= , 6 - @ 9 $.>.>.",
">.>.N | o >.>.>.= 2 E = >.>.>.>.",
">.>.N B P >.>.>.>.= : 5 = >.>.>.",
">.>.N | o >.>.>.>.>.= 3 = >.>.>.",
">.>.N B P >.>.>.>.>.>.= = >.>.>.",
">.>.N ~ o >.>.>.>.>.>.>.>.>.>.>.",
">.>.>.N o >.>.>.>.>.>.>.>.>.>.>.",
">.>.>.>.>.>.>.>.>.>.>.>.>.>.>.>."
};
