/* XPM */
static char *goroot[] = {
/* columns rows colors chars-per-pixel */
"16 17 136 2",
"   c #01075F",
".  c #3A3C42",
"X  c #173E78",
"o  c #213B60",
"O  c #2E425D",
"+  c #3C4250",
"@  c #1C406E",
"#  c #274673",
"$  c #30507A",
"%  c #404551",
"&  c #474C59",
"*  c #535965",
"=  c #41587C",
"-  c #66686C",
";  c #010B98",
":  c #003A8E",
">  c #043C8C",
",  c #043C90",
"<  c #083F91",
"1  c #0E1EA8",
"2  c #1C4E8E",
"3  c #0F4392",
"4  c #184791",
"5  c #1B4B96",
"6  c #3B588B",
"7  c #224E98",
"8  c #1C32C0",
"9  c #253ECF",
"0  c #2F3FDE",
"q  c #2540CE",
"w  c #3752C0",
"e  c #2E40DC",
"r  c #4955FB",
"t  c #7E838B",
"y  c #7285D2",
"u  c #83858A",
"i  c #86949D",
"p  c #8A9298",
"a  c #8B9298",
"s  c #8D9499",
"d  c #8E949A",
"f  c #88959D",
"g  c #8A959D",
"h  c #8B969E",
"j  c #8C959D",
"k  c #8D979F",
"l  c #90969A",
"z  c #96999B",
"x  c #93989C",
"c  c #A6A286",
"v  c #8391A1",
"b  c #8C91A1",
"n  c #929BAB",
"m  c #A0A0A4",
"M  c #A9B5C0",
"N  c #ACB7C2",
"B  c #AFBAC4",
"V  c #ABB9C8",
"C  c #ADBBCA",
"Z  c #B2B9C1",
"A  c #B0B9C3",
"S  c #B1BBC6",
"D  c #B2BCC6",
"F  c #B0BDCB",
"G  c #B5BEC8",
"H  c #B5BFC8",
"J  c #AFB9E5",
"K  c #B7C0C9",
"L  c #BFC5CB",
"P  c #B8C3D0",
"I  c #BDC8D4",
"U  c #BEC8D4",
"Y  c #B6C0E8",
"T  c #C0C1C2",
"R  c #C1CAD5",
"E  c #C2CCD7",
"W  c #C3CCD7",
"Q  c #C6CED7",
"!  c #C4CDD8",
"~  c #C9CFD8",
"^  c #D4CAD1",
"/  c #D3CCD0",
"(  c #CED2D7",
")  c #C8D0DB",
"_  c #C9D1DB",
"`  c #CCD3DB",
"'  c #C9D1DC",
"]  c #CED6DF",
"[  c #CFD6DF",
"{  c #D1D5D9",
"}  c #D1D7DE",
"|  c #D4D7DC",
" . c #CDD2EF",
".. c #D0D7E0",
"X. c #D2D3E5",
"o. c #D3D5E7",
"O. c #D1D8E1",
"+. c #D2D8E1",
"@. c #D2D9E2",
"#. c #D3DAE3",
"$. c #D5DAE1",
"%. c #D4DAE3",
"&. c #D5DBE3",
"*. c #D5DBE4",
"=. c #D6DCE4",
"-. c #D6DDE5",
";. c #D7DDE5",
":. c #DADFE5",
">. c #D8DEE6",
",. c #D9DFE7",
"<. c #D0D4EA",
"1. c #D1D5EC",
"2. c #D0D5ED",
"3. c #C2CEFD",
"4. c #C7D1F7",
"5. c #CBD1F0",
"6. c #CBD1F2",
"7. c #C9D1F5",
"8. c #C7D1F8",
"9. c #DAE0E7",
"0. c #DBE0E7",
"q. c #DBE1E8",
"w. c #DFE3E9",
"e. c #DFE3EA",
"r. c #DFE4EA",
"t. c #E1E5EB",
"y. c #E2E6EC",
"u. c #E3E7ED",
"i. c #E4E7ED",
"p. c #E5E8EE",
"a. c #E7EAEF",
"s. c #EAEBEC",
"d. c #ECEDEF",
"f. c #ECEFF3",
"g. c #EEF1F4",
"h. c #F9FAFB",
/* pixels */
"m m e 9 q m J w w Y m m m m m m ",
"m m r 0 ; J w 3.3.w Y m m m m m ",
"m m 8 1   w  .k d X.w Y m m m m ",
"m m y q w 4.x K K i <.w Y m m m ",
"m m y w 8.z K $.} H f 1.w Y m m ",
"m J w 7.d K :.u.t.` D k 1.w Y m ",
"J w 5.d K :.i.w.q.*.Q N f 1.w Y ",
"w 5.a K t.u.t.0.:.| { R N f o.w ",
"^ p H h.- & . >.>.O X o T M i / ",
"m v f.h.t b % ..-.= 6 7 T H v m ",
"m v i.h.u * + { -.f 5 4 H C v m ",
"m v u.f.f.f.s.~ *.c 3 < S C v m ",
"m v w.:.*...~ E #.# > : Z V v m ",
"m v :.*...' E I ..X : > Z V v m ",
"m v *...' ! U P ..$ 2 2 S V v m ",
"m n n n n n n n n n n n n n n m ",
"m m m m m m m m m m m m m m m m "
};
