/* XPM */
static const char *MakeFolder[] = {
/* columns rows colors chars-per-pixel */
"16 17 109 2",
"   c #825F00",
".  c #A5902D",
"X  c #A69336",
"o  c #A8973F",
"O  c #C5A233",
"+  c #A18B42",
"@  c #AF9457",
"#  c #AB9E53",
"$  c #B1985C",
"%  c #ADA25C",
"&  c #B69C60",
"*  c #BA9D60",
"=  c #BAA063",
"-  c #BDA366",
";  c #B1A96F",
":  c #CBAC41",
">  c #CDAF45",
",  c #CEB046",
"<  c #CEB047",
"1  c #CFB249",
"2  c #D1B450",
"3  c #D2B651",
"4  c #D5BC5B",
"5  c #C4AA6A",
"6  c #C4AA6C",
"7  c #DAB567",
"8  c #D7BF67",
"9  c #DBB768",
"0  c #CAB27A",
"q  c #CCB47B",
"w  c #CFB67C",
"e  c #DEBE75",
"r  c #D4BA79",
"t  c #D2B97E",
"y  c #DBC576",
"u  c #DDC877",
"i  c #DAC07B",
"p  c #E8D370",
"a  c #E9D679",
"s  c #47A1CE",
"d  c #7AADFF",
"f  c #D5BD80",
"g  c #D8C082",
"h  c #DBC384",
"j  c #DEC786",
"k  c #E1C987",
"l  c #E4CE85",
"z  c #E1CF88",
"x  c #EBDA82",
"c  c #F1D082",
"v  c #F0D083",
"b  c #F2D183",
"n  c #F3D283",
"m  c #F4D384",
"M  c #F4D385",
"N  c #F6D485",
"B  c #F6D585",
"V  c #F7D586",
"C  c #F8D686",
"Z  c #F8D687",
"A  c #F9D887",
"S  c #FAD987",
"D  c #F3D988",
"F  c #F7DE89",
"G  c #FAD988",
"H  c #FBDA89",
"J  c #FCD989",
"K  c #FDDB89",
"L  c #FEDD89",
"P  c #FDDC8A",
"I  c #FDDC8B",
"U  c #FEDC8A",
"Y  c #FFDF8C",
"T  c #E3D399",
"R  c #F1D99C",
"E  c #F9E28F",
"W  c #FFE08C",
"Q  c #FFE08D",
"!  c #FFE28E",
"~  c #FFE38E",
"^  c #FFE48F",
"/  c #EEE196",
"(  c #FAE593",
")  c #FFE490",
"_  c #FFE590",
"`  c #FFE591",
"'  c #FFE892",
"]  c #FFE993",
"[  c #F0E59F",
"{  c #FBE899",
"}  c #FCEA9E",
"|  c #E7D8A4",
" . c #E8DBAA",
".. c #EADDAF",
"X. c #FEEEA4",
"o. c #FEF0AA",
"O. c #FFF0AE",
"+. c #FFF1AF",
"@. c #F4ECB2",
"#. c #FEE8BB",
"$. c #FFF2B3",
"%. c #FFF3B6",
"&. c #FFFFBC",
"*. c #FEECC8",
"=. c #FFFFC5",
"-. c #F2E7D1",
";. c #FFFFD9",
":. c #FFFFE2",
">. c #FFFFFF",
/* pixels */
">.>.>.>.>.>.#.9 9 9 9 9 7 *.>.>.",
"-.5 5 5 5 6 e R >.>.d s R r >.>.",
"i F %.%.%.%.* v v v v v v r >.>.",
"k %.` ` ' ] %.@ * 6 6 6 6 r >.>.",
"j $.` ) ` ' ] +.+.+.+.+.O.* >.>.",
"h +.) W W ^ W ) W ^ W ^ D * >.>.",
"g o.W Y W Y W Y + + + + + + + + ",
"f X.L L L L Y I l ..j u 4 2 1 O ",
"t } S A A K H K l  .;.;.=.&.> O ",
"w ] B C M M C C l | ;.;.=.&.> O ",
"q ( n n v M M M l T y y 2 < : O ",
"0 ( n v v n v v l @.[ / x a p O ",
"- - - - - * & $ l @.[ / x a p O ",
">.>.>.>.>.>.>.>.l @.[ / x a p O ",
">.>.>.>.>.>.>.>.X ; % % + X .   ",
">.>.>.>.>.>.>.>.                ",
">.>.>.>.>.>.>.>.>.>.>.>.>.>.>.>."
};
