/* XPM */
static const char *mcd[] = {
/* columns rows colors chars-per-pixel */
"16 17 34 1",
"  c #734A00",
". c #754B00",
"X c #784D00",
"o c #7B5000",
"O c #666666",
"+ c #825400",
"@ c #885800",
"# c #9D6D13",
"$ c #A26F0E",
"% c #D4A33E",
"& c #D8AA48",
"* c #DCB354",
"= c #E0BA5C",
"- c #E1BD60",
"; c #6373BE",
": c #6878C1",
"> c #7282C6",
", c #7786C8",
"< c #F9DD8C",
"1 c #FAE595",
"2 c #FAE596",
"3 c #FAEC9F",
"4 c #FAED9F",
"5 c #FBF4A8",
"6 c #8392CF",
"7 c #8797D1",
"8 c #93A3D8",
"9 c #96A5D9",
"0 c #A4B3E1",
"q c #C0C0C0",
"w c #D3DBFF",
"e c #E1E8FF",
"r c #E8EEFF",
"t c #F0F6FF",
/* pixels */
"*%#qqqqqqq*%#qqq",
"&5--=#qqqq&5--=#",
"&5541Xqqqq&5541X",
"&541< qqqq&541< ",
"$@+XX.qqqq$++XX.",
"qOq*%#qqqq*&#qqq",
"qOq&5--=#q&5--=#",
"qOO&5541Xq&5542X",
"qOq&541<.q&531<.",
"qOq$@+X..q$@+X..",
"qOq*%#qqqqq097qq",
"qOq&5--=#qq8t,:q",
"qOO&5541Xqq6tr;q",
"qqq&541<.qq>ew;q",
"qqq$@+X..qq;;;;q",
"qqqqqqqqqqqqqqqq",
"qqqqqqqqqqqqqqqq"
};
