/* XPM */
static char *paste[] = {
/* columns rows colors chars-per-pixel */
"16 15 256 2",
"   c #000000",
".  c #800000",
"X  c #008000",
"o  c #808000",
"O  c #000080",
"+  c #800080",
"@  c #008080",
"#  c #C0C0C0",
"$  c #C0DCC0",
"%  c #A6CAF0",
"&  c #7B767D",
"*  c #3C78A6",
"=  c #FF00FF",
"-  c #F08B62",
";  c #9B8687",
":  c #B6D5EE",
">  c #F79586",
",  c #F8AA8F",
"<  c #FBBCA4",
"1  c #FCCBB8",
"2  c #CAE1F3",
"3  c #DAEAF7",
"4  c #FDD8C9",
"5  c #FEE3D7",
"6  c #E9F3FA",
"7  c #EFF6FC",
"8  c #FEECE4",
"9  c #FFF1ED",
"0  c #F4F9FD",
"q  c #F7FBFD",
"w  c #FFF5F0",
"e  c #FFF8F4",
"r  c #FAFCFE",
"t  c #FFFAF8",
"y  c #FFFFFF",
"u  c #000000",
"i  c #000000",
"p  c #000000",
"a  c #000000",
"s  c #000000",
"d  c #000000",
"f  c #000000",
"g  c #000000",
"h  c #000000",
"j  c #000000",
"k  c #000000",
"l  c #000000",
"z  c #000000",
"x  c #000000",
"c  c #000000",
"v  c #000000",
"b  c #000000",
"n  c #000000",
"m  c #000000",
"M  c #000000",
"N  c #000000",
"B  c #000000",
"V  c #000000",
"C  c #000000",
"Z  c #000000",
"A  c #000000",
"S  c #000000",
"D  c #000000",
"F  c #000000",
"G  c #000000",
"H  c #000000",
"J  c #000000",
"K  c #000000",
"L  c #000000",
"P  c #000000",
"I  c #000000",
"U  c #000000",
"Y  c #000000",
"T  c #000000",
"R  c #000000",
"E  c #000000",
"W  c #000000",
"Q  c #000000",
"!  c #000000",
"~  c #000000",
"^  c #000000",
"/  c #000000",
"(  c #000000",
")  c #000000",
"_  c #000000",
"`  c #000000",
"'  c #000000",
"]  c #000000",
"[  c #000000",
"{  c #000000",
"}  c #000000",
"|  c #000000",
" . c #000000",
".. c #000000",
"X. c #000000",
"o. c #000000",
"O. c #000000",
"+. c #000000",
"@. c #000000",
"#. c #000000",
"$. c #000000",
"%. c #000000",
"&. c #000000",
"*. c #000000",
"=. c #000000",
"-. c #000000",
";. c #000000",
":. c #000000",
">. c #000000",
",. c #000000",
"<. c #000000",
"1. c #000000",
"2. c #000000",
"3. c #000000",
"4. c #000000",
"5. c #000000",
"6. c #000000",
"7. c #000000",
"8. c #000000",
"9. c #000000",
"0. c #000000",
"q. c #000000",
"w. c #000000",
"e. c #000000",
"r. c #000000",
"t. c #000000",
"y. c #000000",
"u. c #000000",
"i. c #000000",
"p. c #000000",
"a. c #000000",
"s. c #000000",
"d. c #000000",
"f. c #000000",
"g. c #000000",
"h. c #000000",
"j. c #000000",
"k. c #000000",
"l. c #000000",
"z. c #000000",
"x. c #000000",
"c. c #000000",
"v. c #000000",
"b. c #000000",
"n. c #000000",
"m. c #000000",
"M. c #000000",
"N. c #000000",
"B. c #000000",
"V. c #000000",
"C. c #000000",
"Z. c #000000",
"A. c #000000",
"S. c #000000",
"D. c #000000",
"F. c #000000",
"G. c #000000",
"H. c #000000",
"J. c #000000",
"K. c #000000",
"L. c #000000",
"P. c #000000",
"I. c #000000",
"U. c #000000",
"Y. c #000000",
"T. c #000000",
"R. c #000000",
"E. c #000000",
"W. c #000000",
"Q. c #000000",
"!. c #000000",
"~. c #000000",
"^. c #000000",
"/. c #000000",
"(. c #000000",
"). c #000000",
"_. c #000000",
"`. c #000000",
"'. c #000000",
"]. c #000000",
"[. c #000000",
"{. c #000000",
"}. c #000000",
"|. c #000000",
" X c #000000",
".X c #000000",
"XX c #000000",
"oX c #000000",
"OX c #000000",
"+X c #000000",
"@X c #000000",
"#X c #000000",
"$X c #000000",
"%X c #000000",
"&X c #000000",
"*X c #000000",
"=X c #000000",
"-X c #000000",
";X c #000000",
":X c #000000",
">X c #000000",
",X c #000000",
"<X c #000000",
"1X c #000000",
"2X c #000000",
"3X c #000000",
"4X c #000000",
"5X c #000000",
"6X c #000000",
"7X c #000000",
"8X c #000000",
"9X c #000000",
"0X c #000000",
"qX c #000000",
"wX c #000000",
"eX c #000000",
"rX c #000000",
"tX c #000000",
"yX c #000000",
"uX c #000000",
"iX c #000000",
"pX c #000000",
"aX c #000000",
"sX c #000000",
"dX c #000000",
"fX c #000000",
"gX c #000000",
"hX c #000000",
"jX c #000000",
"kX c #000000",
"lX c #000000",
"zX c #000000",
"xX c #000000",
"cX c #000000",
"vX c #000000",
"bX c #000000",
"nX c #000000",
"mX c #000000",
"MX c #000000",
"NX c #000000",
"BX c #000000",
"VX c #000000",
"CX c #000000",
"ZX c #000000",
"AX c #000000",
"SX c #000000",
"DX c #FFFBF0",
"FX c #A0A0A4",
"GX c #808080",
"HX c #FF0000",
"JX c #00FF00",
"KX c #FFFF00",
"LX c #0000FF",
"PX c #FF00FF",
"IX c #00FFFF",
"UX c #FFFFFF",
/* pixels */
"# # # * * * * * * # # # # # # # ",
"# * ; & y y y y & & * # # # # # ",
"* < ; y y y y y y ; - * # # # # ",
"* < ; ; ; ; ; ; ; ; - * # # # # ",
"* 1 < < , , > - * * * * * # # # ",
"* 1 1 < < , , > * 2 : * 0 * # # ",
"* 4 1 1 < < , , * 3 2 * 0 0 * # ",
"* 4 4 1 1 < < , * 6 3 * * * * # ",
"* 5 4 4 1 1 < < * 7 6 3 2 : * # ",
"* 8 5 4 4 1 1 < * q 7 6 3 2 * # ",
"* 8 8 5 4 4 1 1 * r q 7 6 3 * # ",
"* 9 8 8 5 4 4 1 * y r q 0 6 * # ",
"* e w 8 8 5 4 4 * * * * * * * # ",
"* t e w 9 8 5 4 4 4 4 * # # # # ",
"* * * * * * * * * * * * # # # # "
};
