/* XPM */
static const char *pathHistory[] = {
/* columns rows colors chars-per-pixel */
"16 17 53 1",
"  c #525152",
". c #525552",
"X c #555855",
"o c #5A595A",
"O c #5A5D5A",
"+ c #5C5B5C",
"@ c #626162",
"# c #636163",
"$ c #616461",
"% c #676967",
"& c #6C6F6C",
"* c #727472",
"= c #737573",
"- c #7B7D7B",
"; c #7E807E",
": c #848684",
"> c #898B89",
", c #8C8A8C",
"< c #909290",
"1 c #949694",
"2 c #959795",
"3 c #9A9A9A",
"4 c #9B9D9B",
"5 c #9C9A9C",
"6 c #A1A2A1",
"7 c #A5A2A5",
"8 c #A7A9A7",
"9 c #B3B4B3",
"0 c #BFC0BF",
"q c #C0C0C0",
"w c #C4C5C4",
"e c #C6C7C6",
"r c #C8C9C8",
"t c #CACBCA",
"y c #CECFCE",
"u c #D0D0D0",
"i c #D6D6D6",
"p c #DADBDA",
"a c #DCDCDC",
"s c #DEDFDE",
"d c #E1E0E1",
"f c #E4E4E4",
"g c #E5E5E5",
"h c #E7E7E7",
"j c #E9E9E9",
"k c #EFEBEF",
"l c #EFEFEF",
"z c #F0F0F0",
"x c #F4F4F4",
"c c #F5F5F5",
"v c #F9F9F9",
"b c #FAFAFA",
"n c #FFFFFF",
/* pixels */
"qqqqvjq88wjvqqqq",
"qqqp>      <gqqq",
"qvw$        %tqq",
"qu@          %dq",
"x*            :v",
"t              a",
"<   O,,,,,,.   8",
"*   -ylllle*   >",
"&   +1gnns>.   :",
"-    O7kg1+    1",
"8     @31O     q",
"g+     ++     @l",
"v6            9q",
"qz>          3xq",
"qqz4       X8zqq",
"qqqvi<$  %1svqqq",
"qqqqqqqqqqqqqqqq"
};
