/* XPM */
static char *pathNext_[] = {
/* columns rows colors chars-per-pixel */
"16 17 3 1",
"  c #000000",
". c #808080",
"X c #C0C0C0",
/* pixels */
"XXXXXXXXXXXXXXXX",
"XXXXXXXXXXXXXXXX",
"XXXXXXXXXXXXXXXX",
"XXX .XXXXXXXXXXX",
"XXX   .XXXXXXXXX",
"XXX     .XXXXXXX",
"XXX       .XXXXX",
"XXX         .XXX",
"XXX       .XXXXX",
"XXX     .XXXXXXX",
"XXX   .XXXXXXXXX",
"XXX .XXXXXXXXXXX",
"XXXXXXXXXXXXXXXX",
"XXXXXXXXXXXXXXXX",
"XXXXXXXXXXXXXXXX",
"XXXXXXXXXXXXXXXX",
"XXXXXXXXXXXXXXXX"
};
