/* XPM */
static const char *pathdown_[] = {
/* columns rows colors chars-per-pixel */
"17 16 139 2",
"   c #00106F",
".  c #1B3476",
"X  c #243378",
"o  c #324580",
"O  c #324287",
"+  c #374184",
"@  c #3C4788",
"#  c #39468C",
"$  c #3F4A8F",
"%  c #404D8F",
"&  c #445093",
"*  c #45589D",
"=  c #4E639E",
"-  c #5C6492",
";  c #546999",
":  c #57699F",
">  c #667199",
",  c #697CAC",
"<  c #7579A0",
"1  c #6076BA",
"2  c #7184AF",
"3  c #7085AF",
"4  c #7487B0",
"5  c #7587B0",
"6  c #768AB2",
"7  c #778AB2",
"8  c #768AB3",
"9  c #7C91B9",
"0  c #7C93C3",
"q  c #899AB6",
"w  c #8093B9",
"e  c #8295B9",
"r  c #8596B8",
"t  c #8E9BBD",
"y  c #8B9CBE",
"u  c #909DBA",
"i  c #919DBA",
"p  c #95A1BB",
"a  c #92A0BC",
"s  c #92A0BD",
"d  c #859EC6",
"f  c #8F9FC1",
"g  c #95A3C1",
"h  c #97A5C2",
"j  c #9CA6C0",
"k  c #9CA9C1",
"l  c #91A3C9",
"z  c #91A3CA",
"x  c #9CADCB",
"c  c #8DA6D4",
"v  c #9AACD1",
"b  c #9DB5D7",
"n  c #A2ACC5",
"m  c #A2ACC6",
"M  c #A2ACC7",
"N  c #A4AEC7",
"B  c #A1AFCB",
"V  c #A4AFC8",
"C  c #A4AFC9",
"Z  c #A6AFC8",
"A  c #A3B0C9",
"S  c #A1B1CA",
"D  c #A7B1C9",
"F  c #A4B2CB",
"G  c #A7B3CB",
"H  c #A3B1CC",
"J  c #A6B2CC",
"K  c #A7B3CC",
"L  c #A2B5CC",
"P  c #ABB4CE",
"I  c #ABB7CF",
"U  c #AEB7CF",
"Y  c #AAB9CE",
"T  c #AEBDCF",
"R  c #A1B2D6",
"E  c #ACBAD4",
"W  c #B0BBD2",
"Q  c #B5BCD1",
"!  c #B4BED0",
"~  c #B4BCD4",
"^  c #B4BED4",
"/  c #B4BED5",
"(  c #B5C4D0",
")  c #B7C0D5",
"_  c #B6C1D6",
"`  c #B8C2D5",
"'  c #B7C4DC",
"]  c #B8C2D8",
"[  c #BDC5D8",
"{  c #BEC6DC",
"}  c #BECCE0",
"|  c #C0C0C0",
" . c #C2C9DA",
".. c #C1CADE",
"X. c #C3CBDF",
"o. c #C4CFDD",
"O. c #C3CBE0",
"+. c #C0CEE2",
"@. c #CAD1E0",
"#. c #CAD1E3",
"$. c #CFD4E6",
"%. c #CBD3E9",
"&. c #CED6EC",
"*. c #CFD8EB",
"=. c #D1DAEA",
"-. c #D4DDE8",
";. c #D2DAEF",
":. c #D8DEEF",
">. c #D3DCF0",
",. c #D6E0F3",
"<. c #D9E1F3",
"1. c #DDE5F4",
"2. c #DDE6F5",
"3. c #DDE6F7",
"4. c #DBE4F9",
"5. c #DEE5F9",
"6. c #E4E8EF",
"7. c #E8EEF3",
"8. c #E2E9F8",
"9. c #E2EAFC",
"0. c #E4ECFD",
"q. c #E9F1FF",
"w. c #ECF4FF",
"e. c #EEF5FF",
"r. c #EFF6FF",
"t. c #F0F7FF",
"y. c #F2F9FF",
"u. c #F3FBFE",
"i. c #F4FAFF",
"p. c #F4FBFF",
"a. c #F7FBFF",
"s. c #FAFEFD",
"d. c #F8FCFF",
"f. c #F8FDFF",
"g. c #F8FEFF",
"h. c #FAFEFF",
"j. c #FCFFFF",
"k. c #FEFFFF",
"l. c #FFFFFF",
/* pixels */
"| | | | | 6.@.5 6 e t h 6.| | | | ",
"| | | | @.: d +.=.:.1.1.} B 6.| | ",
"| | | @.* b o.Q Q  .%.4.a.u.E 6.| ",
"| | 6.# c Q m Y ] +.>.9.e.l.s.B | ",
"| | < 1 L j D `  .$.8.w.u.a.l.-.@.",
"| 6.@ 0 p m z z z v b 8.a.l.l.l.B ",
"| @.% 9 i D         . . 8.l.l.l.U ",
"| @.& 6 s Z z . . . . z l.s.l.l.( ",
"| #.% 3 a N B z . . z u.s.s.l.l.T ",
"| 6.+ , i N / @.z z 8.a.a.s.l.l.G ",
"| | - = q m U ~ #.>.:.q.u.s.l.7.@.",
"| | 6.X 3 k G E [ #.>.0.e.s.l.J 6.",
"| | | o.O 9 Z U / X.&.4.t.l.' @.| ",
"| | | | @.o 6 J _ X.*.3.,.x @.| | ",
"| | | | | 6.> ; 6 y f r g 6.| | | ",
"| | | | | | | 6.@.@.@.6.| | | | | "
};
