/* XPM */
static const char *path_next[] = {
/* columns rows colors chars-per-pixel */
"16 17 2 1",
"  c #000000",
". c #C0C0C0",
/* pixels */
"................",
"................",
"................",
"...  ..  .......",
"....  ..  ......",
".....  ..  .....",
"....  ..  ......",
"...  ..  .......",
"................",
"................",
"................",
"................",
"................",
"................",
"................",
"................",
"................"
};
