/* XPM */
static char *pathnext_[] = {
/* columns rows colors chars-per-pixel */
"16 17 3 1",
"  c #008000",
". c #0000FF",
"X c #C0C0C0",
/* pixels */
"XXXXXXXXXXXXXXXX",
"XXXXXXXXXXXXXXXX",
"XXXXX.XXXXXXXXXX",
"XXXXX..XXXXXXXXX",
"XXXXX. .XXXXXXXX",
"XXXXX.  .XXXXXXX",
"XXXXX.   .XXXXXX",
"XXXXX.    .XXXXX",
"XXXXX.   .XXXXXX",
"XXXXX.  .XXXXXXX",
"XXXXX. .XXXXXXXX",
"XXXXX..XXXXXXXXX",
"XXXXX.XXXXXXXXXX",
"XXXXXXXXXXXXXXXX",
"XXXXXXXXXXXXXXXX",
"XXXXXXXXXXXXXXXX",
"XXXXXXXXXXXXXXXX"
};
