/* XPM */
static char *pathNext[] = {
/* columns rows colors chars-per-pixel */
"16 17 58 1",
"  c #5F5F5F",
". c #616161",
"X c #646464",
"o c #656565",
"O c #6A6A6A",
"+ c #6B6B6B",
"@ c #6C6C6C",
"# c #727272",
"$ c #737373",
"% c #747474",
"& c #777777",
"* c #7C7C7C",
"= c #7D7D7D",
"- c #818181",
"; c #838383",
": c #888888",
"> c #8E8E8E",
", c #909090",
"< c #919191",
"1 c #989898",
"2 c #9E9E9E",
"3 c #A3A3A3",
"4 c #A7A7A7",
"5 c #B5B5B5",
"6 c #B6B6B6",
"7 c #B9B9B9",
"8 c #BBBBBB",
"9 c #C0C0C0",
"0 c #C1C1C1",
"q c #C2C2C2",
"w c #C3C3C3",
"e c #C9C9C9",
"r c #CBCBCB",
"t c #CFCFCF",
"y c #D2D2D2",
"u c #D3D3D3",
"i c #D5D5D5",
"p c #D8D8D8",
"a c #D9D9D9",
"s c #DCDCDC",
"d c #DDDDDD",
"f c #DFDFDF",
"g c #E5E5E5",
"h c #E7E7E7",
"j c #E8E8E8",
"k c #EAEAEA",
"l c #EBEBEB",
"z c #ECECEC",
"x c #EEEEEE",
"c c #EFEFEF",
"v c #F2F2F2",
"b c #F4F4F4",
"n c #F5F5F5",
"m c #F6F6F6",
"M c #FAFAFA",
"N c #FBFBFB",
"B c #FCFCFC",
"V c #FFFFFF",
/* pixels */
"9999999999999999",
"9999999999999999",
"99999N9999999999",
"99997o7999999999",
"9999&j1-q9999999",
"9999.VVf:>t99999",
"9999.VVVVy=2f999",
"9999.VVVVVV0$4k9",
"9999.BMMMMMNm6On",
"9999.vllllzxc6+b",
"9999.hppadg8#%s9",
"9999.awei0*@r999",
"9999.uww;o599999",
"9999&u, 39999999",
"99997X<999999999",
"99999m9999999999",
"9999999999999999"
};
