/* XPM */
static char *pathhistory_[] = {
/* columns rows colors chars-per-pixel */
"16 17 43 1",
"  c #000000",
". c #070809",
"X c #090909",
"o c #0E0F10",
"O c #0F1010",
"+ c #131414",
"@ c #2F2F30",
"# c #363839",
"$ c #393A39",
"% c #3E3E3E",
"& c #454647",
"* c #474747",
"= c #494949",
"- c #4A4B4A",
"; c #4B4B4B",
": c #505052",
"> c #575757",
", c #606060",
"< c #676767",
"1 c #6D6D6E",
"2 c #6F6F70",
"3 c #747474",
"4 c #BEBEBE",
"5 c #C0C0C0",
"6 c #C2C2C2",
"7 c #C6C6C6",
"8 c #D2D2D2",
"9 c #DBDBDB",
"0 c #DFDFDF",
"q c #E3E3E3",
"w c #E4E4E4",
"e c #E6E6E6",
"r c #E7E7E8",
"t c #EAEAEA",
"y c #EBEBEB",
"u c #EFEFEF",
"i c #F1F1F1",
"p c #F3F3F3",
"a c #F4F4F5",
"s c #F7F7F7",
"d c #F8F8F8",
"f c #F8F8F9",
"g c #FCFCFC",
/* pixels */
"5555555555555555",
"5555555555555555",
"5555r+<to1t55555",
"555550+39o;wg555",
"55555g5X:4.;p555",
"55555wX&0@*0u455",
"5555u.&q#>qus555",
"55555dpupuus5555",
"55555ggg4fd55555",
"5555555555555555",
"5555555555555555",
"55555u2,&%%85555",
"555555u$  7pd555",
"5555555y;8wdg555",
"55555555dsd55555",
"5555555554555555",
"5555555555555555"
};
