/* XPM */
static const char *refresh[] = {
/* columns rows colors chars-per-pixel */
"16 17 177 2",
"   c #374A5C",
".  c #3B5068",
"X  c #39516A",
"o  c #2F4C72",
"O  c #3C5571",
"+  c #36547B",
"@  c #38587F",
"#  c #7F785D",
"$  c #4C5963",
"%  c #535E62",
"&  c #52677F",
"*  c #7D7866",
"=  c #7C7869",
"-  c #7F7B69",
";  c #87713A",
":  c #8B743C",
">  c #977F44",
",  c #928059",
"<  c #A38A4C",
"1  c #AF9658",
"2  c #8E876A",
"3  c #8A836E",
"4  c #918466",
"5  c #94886B",
"6  c #95896C",
"7  c #988C70",
"8  c #928E7F",
"9  c #9C9176",
"0  c #A2977E",
"q  c #B9AD7C",
"w  c #C5AF76",
"e  c #CCB377",
"r  c #D0B677",
"t  c #D3B776",
"y  c #DDBD72",
"u  c #DFBE73",
"i  c #D6BC7D",
"p  c #D9BD7A",
"a  c #DFC073",
"s  c #E2C177",
"d  c #E2C277",
"f  c #E2C378",
"g  c #E6C578",
"h  c #E7C678",
"j  c #E6C679",
"k  c #E7C679",
"l  c #E8C77A",
"z  c #E9C87A",
"x  c #EBCA7C",
"c  c #ECCB7C",
"v  c #EDCB7C",
"b  c #EECD7E",
"n  c #2A5389",
"m  c #2B5389",
"M  c #385B88",
"N  c #2E5C98",
"B  c #31619F",
"V  c #39629A",
"C  c #3468AC",
"Z  c #3A74BF",
"A  c #537398",
"S  c #647681",
"D  c #5278A6",
"F  c #3C76C4",
"G  c #3D7ACA",
"H  c #457DC9",
"J  c #7A8CA3",
"K  c #658CB9",
"L  c #4983CC",
"P  c #5B86C0",
"I  c #4180D5",
"U  c #4182D7",
"Y  c #4283D8",
"T  c #4284DA",
"R  c #4787DB",
"E  c #4385DD",
"W  c #4487DF",
"Q  c #5490DD",
"!  c #5B92D8",
"~  c #6599DD",
"^  c #71A1DF",
"/  c #79A5DF",
"(  c #4588E2",
")  c #4689E3",
"_  c #498BE4",
"`  c #4A8CE4",
"'  c #4B8DE4",
"]  c #4D8DE4",
"[  c #4C8EE4",
"{  c #4D8EE4",
"}  c #5190E5",
"|  c #5191E5",
" . c #5493E5",
".. c #5995E6",
"X. c #639CE7",
"o. c #669EE8",
"O. c #679EE8",
"+. c #71A5EA",
"@. c #75A7E8",
"#. c #7CABE8",
"$. c #909486",
"%. c #8D9896",
"&. c #A89E86",
"*. c #AAA089",
"=. c #AEA48E",
"-. c #BAAF8C",
";. c #AFA690",
":. c #B6AE9A",
">. c #8593A5",
",. c #8D9DA1",
"<. c #8C9FA8",
"1. c #839DB1",
"2. c #A5A9A0",
"3. c #BDB6A4",
"4. c #C2BBAB",
"5. c #C6BFAF",
"6. c #EFCF83",
"7. c #F1CF80",
"8. c #F1CF81",
"9. c #F2D181",
"0. c #F5D483",
"q. c #F7D484",
"w. c #F6D584",
"e. c #F7D584",
"r. c #F9D785",
"t. c #FBD987",
"y. c #FCD886",
"u. c #FCDA86",
"i. c #FCDA87",
"p. c #FEDA86",
"a. c #FEDE89",
"s. c #FEDD8A",
"d. c #FEDE8B",
"f. c #F0D794",
"g. c #F0D795",
"h. c #FEE18C",
"j. c #FEE28C",
"k. c #FEE28E",
"l. c #FEE590",
"z. c #FEE591",
"x. c #FEE790",
"c. c #FDE893",
"v. c #FEE892",
"b. c #FEEA92",
"n. c #FEEA93",
"m. c #C5C3AD",
"M. c #C2C3B1",
"N. c #C6C0B0",
"B. c #CBCCB1",
"V. c #CBC9B6",
"C. c #C7CFBF",
"Z. c #D1D6BD",
"A. c #E8E1A7",
"S. c #8AA6C0",
"D. c #8BAAC7",
"F. c #98B4D5",
"G. c #90B2D9",
"H. c #9AB8DE",
"J. c #9CBBDF",
"K. c #A1BAD4",
"L. c #89B3EB",
"P. c #88B4EC",
"I. c #92B7E7",
"U. c #9DBBE2",
"Y. c #9CBDE2",
"T. c #9ABDE8",
"R. c #A0BDE1",
"E. c #BEC6D1",
"W. c #A2C0E2",
"Q. c #B4C9E2",
"!. c #B5CFF3",
"~. c #C0C0C0",
"^. c #C4D1CB",
"/. c #E1DED6",
"(. c #D7DDE5",
"). c #D7E3F5",
"_. c #F7FAFD",
/* pixels */
"/.5.N.N.m.N.N.N.N.N.m.5.Q.!.3.~.",
"3.n.n.n.n.n.n.n.n.r f.f.U.X.).~.",
":.n.n.n.n.n.n.A.^.K.Y.U.#. .@._.",
";.x.n.n.n.n.Z.T.+.| ' [ [ ` } T.",
"&.x.x.x.x.^.+.V X   A H ) E G V ",
"0 h.l.h.B.Q & q h.< r.! F N + J ",
"9 s.d.s.1.$.p.s.s.> r.R o >.E.~.",
"7 i.i.i.y.p.p.i.: 1 q.%.= =.~.~.",
"4 r.w.w.w.w.q.; 2.D.9.b l > =.K.",
"4 8.8.8.8.8.V.F.@.D b l l g 8 I.",
"4 b c c M.R.P.O.) <.x l g m./ P ",
"4 k k l S.| ) ) _ ~ G.R.I...M (.",
"4 s s s i K U T T T H F m $ * ~.",
"4 u a a u ;.L C M O X % 4 t 4 ~.",
"4 y u u 6.e >.n # w w p f 4 ~.~.",
"4.4 4 4 3 3 > A > 4 4 4 6 ~.~.~.",
"~.~.~.~.~.~.~.~.~.~.~.~.~.~.~.~."
};
