/* XPM */
static char *shcico[] = {
/* columns rows colors chars-per-pixel */
"16 16 5 1",
"  c #000000",
". c #FF0000",
"X c #FFFF00",
"o c #000080",
"O c #FFFFFF",
/* pixels */
"                ",
"                ",
"                ",
"                ",
"     ooooo      ",
"     Ooooo      ",
"     Oooo       ",
"     Oooo XXXXX ",
" ... oooo OXXXX ",
" O..      OXXXX ",
" O....    OXXXX ",
" O....    XXXXX ",
" .....          ",
"                ",
"                ",
"                "
};
