/* XPM */
static char *upfolder[] = {
/* columns rows colors chars-per-pixel */
"16 17 88 1",
"  c #1666A5",
". c #2272AF",
"X c #2676B2",
"o c #2978B3",
"O c #2E7DB7",
"+ c #2F7EB8",
"@ c #367CB3",
"# c #107FC9",
"$ c #3982B9",
"% c #1285CE",
"& c #1488D0",
"* c #178DD3",
"= c #158ED5",
"- c #1890D6",
"; c #1A95DB",
": c #1C97DD",
"> c #2298DC",
", c #1F9EE3",
"< c #209DE2",
"1 c #2EA2E2",
"2 c #23A5E8",
"3 c #2AA7E8",
"4 c #27ABED",
"5 c #2AABED",
"6 c #34A1E0",
"7 c #3AACE9",
"8 c #37B1ED",
"9 c #2BAFF0",
"0 c #36B3F0",
"q c #37B4F2",
"w c #6399C3",
"e c #6DA2CB",
"r c #74AED9",
"t c #74B2DC",
"y c #77B5DF",
"u c #78B4DD",
"i c #40ACE8",
"p c #44B1E8",
"a c #45B2E9",
"s c #45B3EA",
"d c #45B4EB",
"f c #46B3EC",
"g c #46B6EC",
"h c #47B7ED",
"j c #45B5EE",
"k c #47B8EE",
"l c #48B9EF",
"z c #49BAEF",
"x c #44B7F0",
"c c #44BAF2",
"v c #48B9F1",
"b c #49BBF1",
"n c #4ABAF0",
"m c #4BBAF1",
"M c #4ABBF2",
"N c #4ABCF2",
"B c #4BBDF2",
"V c #4CBCF2",
"C c #4CBDF2",
"Z c #4ABDF4",
"A c #4BBEF4",
"S c #7AB9E1",
"D c #78B8E2",
"F c #7DBDE4",
"G c #77C3EA",
"H c #78C3EB",
"J c #79C4EC",
"K c #7AC5ED",
"L c #79C6ED",
"P c #7AC6ED",
"I c #7AC8EF",
"U c #7BC7F0",
"Y c #7DCAF2",
"T c #7ECBF2",
"R c #7ECFF6",
"E c #9FC4DF",
"W c #80C2E8",
"Q c #85C3E9",
"! c #82C7EC",
"~ c #85CBEF",
"^ c #83CDF2",
"/ c #83CFF4",
"( c #91D3F4",
") c #90D6F7",
"_ c #A2C7E1",
"` c #AFCBE2",
"' c #B5D2E7",
"] c #C0C0C0",
/* pixels */
"]]]]]]` ']]]]]]]",
"]]]]]` HX']]]]]]",
"]]]]` Hp(X']]]]]",
"]]]` Hshz)@']]]]",
"]]` PshzZqR+']]]",
"]` PdkNVc94Y+']]",
"` IhkbNV0/YUL+']",
"w@..Xbbx5^OOO$e]",
"]]]]oZb82^O]]]]]",
"]]]]oMh3,!O]]]]]",
"]]]]ob7<:WO]]]]]",
"]]]]of1;-FO]]]]]",
"]]]]oi>=%SO]]]]]",
"]]]]o6*%%uO]]]]]",
"]]]]oQDyrrO]]]]]",
"]]]]EOOOOO_]]]]]",
"]]]]]]]]]]]]]]]]"
};
