/* XPM */
static char *windowsplit[] = {
/* columns rows colors chars-per-pixel */
"16 17 43 1",
"  c #4C5C6E",
". c #4E5D70",
"X c #506174",
"o c #546579",
"O c #586A7F",
"+ c #5C6F85",
"@ c #61758C",
"# c #647990",
"$ c #677C95",
"% c #6A8099",
"& c #6D849E",
"* c #6F86A1",
"= c #7289A4",
"- c #748CA8",
"; c #758DA9",
": c #5BA2CC",
"> c #64A8CF",
", c #6DADD1",
"< c #78B2D4",
"1 c #A0A0A4",
"2 c #82B7D7",
"3 c #8EBFDA",
"4 c #9BC5DE",
"5 c #A7CBE1",
"6 c #B3D2E5",
"7 c #9DEAF3",
"8 c #A7EBF4",
"9 c #AAEBF4",
"0 c #C4D9EA",
"q c #F2F2F2",
"w c #F8F8F8",
"e c #F9F8F8",
"r c #FAF9F9",
"t c #FAFAF9",
"y c #FAF9FA",
"u c #FAFAFA",
"i c #FBFBFB",
"p c #FBFCFB",
"a c #FCFCFB",
"s c #FDFDFC",
"d c #FDFDFD",
"f c #FEFEFE",
"g c #FFFFFF",
/* pixels */
"1111111111111111",
";;;;;;;;;;;;;;=*",
";7777;ggggggggg&",
";7007;ggggggggg$",
";7667;ggggggggg$",
";7557;ggggggggg#",
";7447;ggggggggg@",
";8338;ggggggggg+",
";7227;ggggggiggO",
";8<<8-tgaaaggiio",
";8,,8=tiptiiiiaX",
";8>>8*ttttttytt.",
";9::9*ywwwwyyww ",
";9889%qqqqqqqqq ",
"-=*&%$@@+OoX    ",
"1111111111111111",
"1111111111111111"
};
