/* XPM */
static char *window_two[] = {
/* columns rows colors chars-per-pixel */
"16 17 80 1",
"  c #587080",
". c #5A7080",
"X c #607583",
"o c #647A88",
"O c #677D8B",
"+ c #6D7F8C",
"@ c #6E808D",
"# c #698090",
"$ c #6B8190",
"% c #698192",
"& c #738592",
"* c #718796",
"= c #788B99",
"- c #7A8F9E",
"; c #718CA0",
": c #7590A4",
"> c #7F93A2",
", c #7793A8",
"< c #7A97AD",
"1 c #7F98AB",
"2 c #79A0C0",
"3 c #8196A7",
"4 c #879AAB",
"5 c #849CAF",
"6 c #879DAE",
"7 c #8F9EA9",
"8 c #819FB7",
"9 c #889EB0",
"0 c #93A1AA",
"q c #95A4AE",
"w c #87A1B4",
"e c #8CA2B3",
"r c #8CA3B3",
"t c #8DA3B3",
"y c #88A1B5",
"u c #8BA3B6",
"i c #8CA4B8",
"p c #8FA5B8",
"a c #8EA7BB",
"s c #8FA8BD",
"d c #90A6B8",
"f c #94A9BB",
"g c #94AABC",
"h c #95ACBF",
"j c #96ACBE",
"k c #9FAEBA",
"l c #9BAFBD",
"z c #86A6C0",
"x c #93ABC0",
"c c #98ADC0",
"v c #9AB0C3",
"b c #9AB1C3",
"n c #99B0C4",
"m c #9DB3C6",
"M c #A7B7C2",
"N c #ABB9C5",
"B c #A6BFD3",
"V c #B3C1CC",
"C c #AAC2D5",
"Z c #A4C1D8",
"A c #B7C6D2",
"S c #B7C7D5",
"D c #B9C9D5",
"F c #BECEDB",
"G c #C0C0C0",
"H c #C0CDD8",
"J c #CFD8DE",
"K c #D3DADE",
"L c #D2DADF",
"P c #D5DBDF",
"I c #CCDBE9",
"U c #D3DCE3",
"Y c #D8DFE4",
"T c #DEE5EC",
"R c #DFE6EC",
"E c #E2E7EB",
"W c #EBF4FB",
"Q c #F7F9FA",
"! c #F5F9FD",
"~ c #FDFDFD",
/* pixels */
"GGGGGGGGGGGGGGGG",
"GGGGGGGGGGGGGGGG",
"GGGTSmmbcgdr4MTG",
"GGGSTQQQQQQQQJkG",
"GGGmQt::::::lQ*V",
"GTSxmasiw51w:Q@G",
"GSTQQQQQQQQJ=Q+G",
"GmQt::::::lQ%WoG",
"GbQ1ZZZZZZ1Q@A0V",
"GhQ22222222! 0PG",
"GpWCzzizziZW.~GG",
"GVFInxd61-SAqGGG",
"GENuKQQQQKX0PGGG",
"GGHgt4>=&@@0~GGG",
"GGGGGGGGGGGGGGGG",
"GGGGGGGGGGGGGGGG",
"GGGGGGGGGGGGGGGG"
};
