/* XPM */
static char *window_one[] = {
/* columns rows colors chars-per-pixel */
"16 17 77 1",
"  c #526775",
". c #526979",
"X c #5A717F",
"o c #5E727E",
"O c #5D7385",
"+ c #627685",
"@ c #637987",
"# c #647988",
"$ c #667C8A",
"% c #697E8E",
"& c #6C8090",
"* c #6C8291",
"= c #708695",
"- c #758B9E",
"; c #778C9C",
": c #7F8F99",
"> c #728DA1",
", c #7692A7",
"< c #7F95A6",
"1 c #7F96AA",
"2 c #7A97AD",
"3 c #7F9DB5",
"4 c #759DBE",
"5 c #789FBF",
"6 c #8096A6",
"7 c #8197A9",
"8 c #8398A9",
"9 c #8499AB",
"0 c #879DAF",
"q c #95A3AD",
"w c #89A0B1",
"e c #88A0B4",
"r c #8DA3B5",
"t c #8FA5B6",
"y c #83A2BB",
"u c #8EA6BB",
"i c #90A5B7",
"p c #9DACB7",
"a c #92A8BA",
"s c #93A9BB",
"d c #95ACBE",
"f c #96ACBE",
"g c #99ACBB",
"h c #A2B2BE",
"j c #87A7C1",
"k c #8BADCB",
"l c #98AEC0",
"z c #99AFC2",
"x c #9AB0C3",
"c c #9BB2C4",
"v c #9CB2C5",
"b c #AFBDC8",
"n c #A8BBCC",
"m c #A2BCD2",
"M c #A5BED4",
"N c #B4C2CD",
"B c #A3C0D8",
"V c #B6C5D2",
"C c #B6C6D4",
"Z c #BECFDD",
"A c #C0C0C0",
"S c #C1CFDB",
"D c #D0D6DA",
"F c #D2D9DE",
"G c #D5DBDE",
"H c #D7DDE2",
"J c #D7E0E6",
"K c #DEE5EB",
"L c #DFE6EC",
"P c #DDEAF5",
"I c #E3E8EC",
"U c #EAEDEE",
"Y c #EBF4FB",
"T c #F7F9FA",
"R c #F5F9FD",
"E c #F9FAFB",
"W c #FCFDFD",
/* pixels */
"AAAAAAAAAAAAAAAA",
"AAAAAAAAAAAAAAAA",
"AAAAAAAAAAAAAAAA",
"AKCvvzzdat096hHA",
"ACLTTTTTTTTTTFpA",
"AvTw>>>>>>>>gT=A",
"AcT,BBBBBBBB,T*A",
"AzT2kkkkkkkk2T%A",
"AdR3555555553R$A",
"AsYy44444444yY#A",
"AiPMjjjjjjjjmP@A",
"ANZPPPPPPPPPPVqA",
"AIb67uw1-O.X@qGA",
"AAAEnJTTTTDoUAAA",
"AAASdr8;&+  :WAA",
"AAAAAAAAAAAAAAAA",
"AAAAAAAAAAAAAAAA"
};
